<mxfile host="app.diagrams.net" modified="2020-10-07T03:16:45.596Z" agent="5.0 (X11)" etag="yjTEOgzoPLIKfyg7Uq5l" version="13.7.7" type="github" pages="5">
  <diagram id="rMpPFo-NsCuVZG48vWvC" name="Monadic Interface">
    <mxGraphModel dx="810" dy="449" grid="1" gridSize="10" guides="1" tooltips="1" connect="1" arrows="1" fold="1" page="1" pageScale="1" pageWidth="980" pageHeight="690" math="1" shadow="0">
      <root>
        <mxCell id="5pAeC5k6nRE1vEOoV7lP-0" />
        <mxCell id="5pAeC5k6nRE1vEOoV7lP-1" parent="5pAeC5k6nRE1vEOoV7lP-0" />
        <mxCell id="CpsBF_Wn-gydVHmDiDTO-0" value="&lt;h1&gt;Monadic Interface&lt;br&gt;&lt;/h1&gt;" style="text;align=center;verticalAlign=middle;resizable=0;points=[];autosize=1;labelBorderColor=none;labelBackgroundColor=none;html=1;" parent="5pAeC5k6nRE1vEOoV7lP-1" vertex="1">
          <mxGeometry x="40" y="30" width="220" height="50" as="geometry" />
        </mxCell>
        <mxCell id="eNJxXmmU7Q-vlIFRZY43-1" style="edgeStyle=orthogonalEdgeStyle;rounded=0;orthogonalLoop=1;jettySize=auto;html=1;curved=1;exitX=0.75;exitY=1;exitDx=0;exitDy=0;" parent="5pAeC5k6nRE1vEOoV7lP-1" source="eNJxXmmU7Q-vlIFRZY43-0" edge="1">
          <mxGeometry relative="1" as="geometry">
            <mxPoint x="100" y="240" as="targetPoint" />
          </mxGeometry>
        </mxCell>
        <mxCell id="QZ8ByNgkRu5A0PQ3RnU7-1" value="$$\small B$$" style="edgeLabel;html=1;align=left;verticalAlign=middle;resizable=0;points=[];labelBackgroundColor=none;" parent="eNJxXmmU7Q-vlIFRZY43-1" vertex="1" connectable="0">
          <mxGeometry x="-0.2361" relative="1" as="geometry">
            <mxPoint y="4.72" as="offset" />
          </mxGeometry>
        </mxCell>
        <mxCell id="eNJxXmmU7Q-vlIFRZY43-2" style="edgeStyle=orthogonalEdgeStyle;curved=1;rounded=0;orthogonalLoop=1;jettySize=auto;html=1;entryX=0.5;entryY=0;entryDx=0;entryDy=0;" parent="5pAeC5k6nRE1vEOoV7lP-1" target="eNJxXmmU7Q-vlIFRZY43-0" edge="1">
          <mxGeometry relative="1" as="geometry">
            <mxPoint x="79.94117647058829" y="120" as="targetPoint" />
            <mxPoint x="80" y="120" as="sourcePoint" />
          </mxGeometry>
        </mxCell>
        <mxCell id="QZ8ByNgkRu5A0PQ3RnU7-0" value="$$\small A$$" style="edgeLabel;html=1;align=left;verticalAlign=middle;resizable=0;points=[];labelBackgroundColor=none;" parent="eNJxXmmU7Q-vlIFRZY43-2" vertex="1" connectable="0">
          <mxGeometry x="-0.3194" y="-1" relative="1" as="geometry">
            <mxPoint x="1" y="6.39" as="offset" />
          </mxGeometry>
        </mxCell>
        <mxCell id="eNJxXmmU7Q-vlIFRZY43-0" value="" style="rounded=1;whiteSpace=wrap;html=1;labelBackgroundColor=none;strokeColor=#666666;fontColor=#333333;fillColor=none;dashed=1;" parent="5pAeC5k6nRE1vEOoV7lP-1" vertex="1">
          <mxGeometry x="40" y="160" width="80" height="40" as="geometry" />
        </mxCell>
        <mxCell id="VfKYdLGAdD4LiLN6OJh6-0" style="edgeStyle=orthogonalEdgeStyle;rounded=0;orthogonalLoop=1;jettySize=auto;html=1;curved=1;exitX=0.25;exitY=1;exitDx=0;exitDy=0;" edge="1" parent="5pAeC5k6nRE1vEOoV7lP-1" source="eNJxXmmU7Q-vlIFRZY43-0">
          <mxGeometry relative="1" as="geometry">
            <mxPoint x="60" y="240" as="targetPoint" />
            <mxPoint x="340" y="200" as="sourcePoint" />
          </mxGeometry>
        </mxCell>
        <mxCell id="VfKYdLGAdD4LiLN6OJh6-1" value="$$\scriptsize\mathrm{Block}_c$$" style="edgeLabel;html=1;align=left;verticalAlign=middle;resizable=0;points=[];labelBackgroundColor=none;" vertex="1" connectable="0" parent="VfKYdLGAdD4LiLN6OJh6-0">
          <mxGeometry x="0.6486" y="-1" relative="1" as="geometry">
            <mxPoint y="-13.14" as="offset" />
          </mxGeometry>
        </mxCell>
      </root>
    </mxGraphModel>
  </diagram>
  <diagram name="Monadic Unit" id="BNvFmytog_Ue4hhcQawD">
    <mxGraphModel dx="810" dy="449" grid="1" gridSize="10" guides="1" tooltips="1" connect="1" arrows="1" fold="1" page="1" pageScale="1" pageWidth="980" pageHeight="690" math="1" shadow="0">
      <root>
        <mxCell id="EO7N8vqKN83MjDOOd26v-0" />
        <mxCell id="EO7N8vqKN83MjDOOd26v-1" parent="EO7N8vqKN83MjDOOd26v-0" />
        <mxCell id="EO7N8vqKN83MjDOOd26v-2" value="&lt;h1&gt;Monadic Unit&lt;br&gt;&lt;/h1&gt;" style="text;align=center;verticalAlign=middle;resizable=0;points=[];autosize=1;labelBorderColor=none;labelBackgroundColor=none;html=1;" vertex="1" parent="EO7N8vqKN83MjDOOd26v-1">
          <mxGeometry x="40" y="30" width="170" height="50" as="geometry" />
        </mxCell>
        <mxCell id="EO7N8vqKN83MjDOOd26v-5" style="edgeStyle=orthogonalEdgeStyle;curved=1;rounded=0;orthogonalLoop=1;jettySize=auto;html=1;entryX=0.5;entryY=0;entryDx=0;entryDy=0;" edge="1" parent="EO7N8vqKN83MjDOOd26v-1" target="EO7N8vqKN83MjDOOd26v-11">
          <mxGeometry relative="1" as="geometry">
            <mxPoint x="79.83000000000001" y="160" as="targetPoint" />
            <mxPoint x="80" y="120" as="sourcePoint" />
          </mxGeometry>
        </mxCell>
        <mxCell id="EO7N8vqKN83MjDOOd26v-6" value="$$\small A$$" style="edgeLabel;html=1;align=left;verticalAlign=middle;resizable=0;points=[];labelBackgroundColor=none;" vertex="1" connectable="0" parent="EO7N8vqKN83MjDOOd26v-5">
          <mxGeometry x="-0.3194" y="-1" relative="1" as="geometry">
            <mxPoint x="1" y="6.39" as="offset" />
          </mxGeometry>
        </mxCell>
        <mxCell id="EO7N8vqKN83MjDOOd26v-12" style="edgeStyle=orthogonalEdgeStyle;rounded=0;orthogonalLoop=1;jettySize=auto;html=1;fontSize=12;curved=1;" edge="1" parent="EO7N8vqKN83MjDOOd26v-1" source="EO7N8vqKN83MjDOOd26v-11">
          <mxGeometry relative="1" as="geometry">
            <mxPoint x="60" y="240" as="targetPoint" />
            <Array as="points">
              <mxPoint x="80" y="210" />
              <mxPoint x="60" y="210" />
            </Array>
          </mxGeometry>
        </mxCell>
        <mxCell id="EO7N8vqKN83MjDOOd26v-15" value="$$\scriptsize\mathrm{Block}_c$$" style="edgeLabel;html=1;align=left;verticalAlign=middle;resizable=0;points=[];fontSize=12;labelBackgroundColor=none;" vertex="1" connectable="0" parent="EO7N8vqKN83MjDOOd26v-12">
          <mxGeometry x="0.1111" relative="1" as="geometry">
            <mxPoint y="6.67" as="offset" />
          </mxGeometry>
        </mxCell>
        <mxCell id="EO7N8vqKN83MjDOOd26v-13" style="edgeStyle=orthogonalEdgeStyle;curved=1;rounded=0;orthogonalLoop=1;jettySize=auto;html=1;fontSize=12;" edge="1" parent="EO7N8vqKN83MjDOOd26v-1" source="EO7N8vqKN83MjDOOd26v-11">
          <mxGeometry relative="1" as="geometry">
            <mxPoint x="100" y="240" as="targetPoint" />
            <Array as="points">
              <mxPoint x="80" y="210" />
              <mxPoint x="100" y="210" />
            </Array>
          </mxGeometry>
        </mxCell>
        <mxCell id="EO7N8vqKN83MjDOOd26v-16" value="$$\small A$$" style="edgeLabel;html=1;align=left;verticalAlign=middle;resizable=0;points=[];fontSize=12;labelBackgroundColor=none;" vertex="1" connectable="0" parent="EO7N8vqKN83MjDOOd26v-13">
          <mxGeometry x="0.3222" y="-1" relative="1" as="geometry">
            <mxPoint x="1" y="0.33" as="offset" />
          </mxGeometry>
        </mxCell>
        <mxCell id="EO7N8vqKN83MjDOOd26v-11" value="$$1$$" style="rhombus;whiteSpace=wrap;html=1;fontSize=12;align=center;rounded=0;fillColor=#f5f5f5;strokeColor=#666666;fontColor=#333333;" vertex="1" parent="EO7N8vqKN83MjDOOd26v-1">
          <mxGeometry x="60" y="160" width="40" height="40" as="geometry" />
        </mxCell>
        <mxCell id="EO7N8vqKN83MjDOOd26v-17" style="edgeStyle=orthogonalEdgeStyle;curved=1;rounded=0;orthogonalLoop=1;jettySize=auto;html=1;dashed=1;dashPattern=1 1;endArrow=classicThin;endFill=1;" edge="1" parent="EO7N8vqKN83MjDOOd26v-1" source="EO7N8vqKN83MjDOOd26v-18">
          <mxGeometry relative="1" as="geometry">
            <mxPoint x="110" y="180" as="targetPoint" />
          </mxGeometry>
        </mxCell>
        <mxCell id="EO7N8vqKN83MjDOOd26v-18" value="Wraps the input in a one-element block" style="ellipse;whiteSpace=wrap;html=1;labelBackgroundColor=none;align=center;dashed=1;dashPattern=1 1;fontSize=11;fontStyle=2" vertex="1" parent="EO7N8vqKN83MjDOOd26v-1">
          <mxGeometry x="190" y="130" width="110" height="50" as="geometry" />
        </mxCell>
        <mxCell id="EO7N8vqKN83MjDOOd26v-19" value="Monadic unit is a natural transformation." style="text;html=1;align=center;verticalAlign=middle;resizable=0;points=[];autosize=1;fontSize=12;" vertex="1" parent="EO7N8vqKN83MjDOOd26v-1">
          <mxGeometry x="80" y="320" width="230" height="20" as="geometry" />
        </mxCell>
        <mxCell id="EO7N8vqKN83MjDOOd26v-20" style="edgeStyle=orthogonalEdgeStyle;curved=1;rounded=0;orthogonalLoop=1;jettySize=auto;html=1;entryX=0.5;entryY=0;entryDx=0;entryDy=0;" edge="1" parent="EO7N8vqKN83MjDOOd26v-1" target="EO7N8vqKN83MjDOOd26v-26">
          <mxGeometry relative="1" as="geometry">
            <mxPoint x="79.83000000000004" y="400" as="targetPoint" />
            <mxPoint x="80" y="360" as="sourcePoint" />
          </mxGeometry>
        </mxCell>
        <mxCell id="EO7N8vqKN83MjDOOd26v-21" value="$$\small A$$" style="edgeLabel;html=1;align=left;verticalAlign=middle;resizable=0;points=[];labelBackgroundColor=none;" vertex="1" connectable="0" parent="EO7N8vqKN83MjDOOd26v-20">
          <mxGeometry x="-0.3194" y="-1" relative="1" as="geometry">
            <mxPoint x="1" y="6.39" as="offset" />
          </mxGeometry>
        </mxCell>
        <mxCell id="EO7N8vqKN83MjDOOd26v-22" style="edgeStyle=orthogonalEdgeStyle;rounded=0;orthogonalLoop=1;jettySize=auto;html=1;fontSize=12;curved=1;" edge="1" parent="EO7N8vqKN83MjDOOd26v-1" source="EO7N8vqKN83MjDOOd26v-26">
          <mxGeometry relative="1" as="geometry">
            <mxPoint x="60" y="480" as="targetPoint" />
            <Array as="points">
              <mxPoint x="80" y="450" />
              <mxPoint x="60" y="450" />
            </Array>
          </mxGeometry>
        </mxCell>
        <mxCell id="EO7N8vqKN83MjDOOd26v-23" value="$$\scriptsize\mathrm{Block}_c$$" style="edgeLabel;html=1;align=left;verticalAlign=middle;resizable=0;points=[];fontSize=12;labelBackgroundColor=none;" vertex="1" connectable="0" parent="EO7N8vqKN83MjDOOd26v-22">
          <mxGeometry x="0.1111" relative="1" as="geometry">
            <mxPoint y="6.67" as="offset" />
          </mxGeometry>
        </mxCell>
        <mxCell id="EO7N8vqKN83MjDOOd26v-24" style="edgeStyle=orthogonalEdgeStyle;curved=1;rounded=0;orthogonalLoop=1;jettySize=auto;html=1;fontSize=12;" edge="1" parent="EO7N8vqKN83MjDOOd26v-1" source="EO7N8vqKN83MjDOOd26v-26">
          <mxGeometry relative="1" as="geometry">
            <mxPoint x="100" y="480" as="targetPoint" />
            <Array as="points">
              <mxPoint x="80" y="450" />
              <mxPoint x="100" y="450" />
            </Array>
          </mxGeometry>
        </mxCell>
        <mxCell id="EO7N8vqKN83MjDOOd26v-25" value="$$\small A$$" style="edgeLabel;html=1;align=left;verticalAlign=middle;resizable=0;points=[];fontSize=12;labelBackgroundColor=none;" vertex="1" connectable="0" parent="EO7N8vqKN83MjDOOd26v-24">
          <mxGeometry x="0.3222" y="-1" relative="1" as="geometry">
            <mxPoint x="1" y="0.33" as="offset" />
          </mxGeometry>
        </mxCell>
        <mxCell id="EO7N8vqKN83MjDOOd26v-26" value="$$1$$" style="rhombus;whiteSpace=wrap;html=1;fillColor=#f5f5f5;fontSize=12;align=center;rounded=0;strokeColor=#666666;fontColor=#333333;" vertex="1" parent="EO7N8vqKN83MjDOOd26v-1">
          <mxGeometry x="60" y="400" width="40" height="40" as="geometry" />
        </mxCell>
        <mxCell id="EO7N8vqKN83MjDOOd26v-27" value="" style="shape=doubleArrow;whiteSpace=wrap;html=1;strokeColor=none;fillColor=#E6E6E6;arrowWidth=0.43200000000000044;arrowSize=0.30399999999999977;" vertex="1" parent="EO7N8vqKN83MjDOOd26v-1">
          <mxGeometry x="130" y="370" width="100" height="100" as="geometry" />
        </mxCell>
        <mxCell id="EO7N8vqKN83MjDOOd26v-28" style="edgeStyle=orthogonalEdgeStyle;curved=1;rounded=0;orthogonalLoop=1;jettySize=auto;html=1;" edge="1" parent="EO7N8vqKN83MjDOOd26v-1">
          <mxGeometry relative="1" as="geometry">
            <mxPoint x="320" y="480" as="targetPoint" />
            <mxPoint x="320" y="360" as="sourcePoint" />
          </mxGeometry>
        </mxCell>
        <mxCell id="EO7N8vqKN83MjDOOd26v-29" value="$$\small A$$" style="edgeLabel;html=1;align=left;verticalAlign=middle;resizable=0;points=[];labelBackgroundColor=none;" vertex="1" connectable="0" parent="EO7N8vqKN83MjDOOd26v-28">
          <mxGeometry x="-0.3194" y="-1" relative="1" as="geometry">
            <mxPoint x="1" y="19.169999999999998" as="offset" />
          </mxGeometry>
        </mxCell>
        <mxCell id="EO7N8vqKN83MjDOOd26v-30" style="edgeStyle=orthogonalEdgeStyle;rounded=0;orthogonalLoop=1;jettySize=auto;html=1;fontSize=12;curved=1;" edge="1" parent="EO7N8vqKN83MjDOOd26v-1" source="EO7N8vqKN83MjDOOd26v-34">
          <mxGeometry relative="1" as="geometry">
            <mxPoint x="280" y="480" as="targetPoint" />
            <Array as="points">
              <mxPoint x="280" y="460" />
              <mxPoint x="280" y="460" />
            </Array>
          </mxGeometry>
        </mxCell>
        <mxCell id="EO7N8vqKN83MjDOOd26v-31" value="$$\scriptsize\mathrm{Block}_c$$" style="edgeLabel;html=1;align=left;verticalAlign=middle;resizable=0;points=[];fontSize=12;labelBackgroundColor=none;" vertex="1" connectable="0" parent="EO7N8vqKN83MjDOOd26v-30">
          <mxGeometry x="0.1111" relative="1" as="geometry">
            <mxPoint x="-0.03" y="-2.26" as="offset" />
          </mxGeometry>
        </mxCell>
        <mxCell id="EO7N8vqKN83MjDOOd26v-34" value="$$1$$" style="rhombus;whiteSpace=wrap;html=1;fillColor=#f5f5f5;fontSize=12;align=center;rounded=0;strokeColor=#666666;fontColor=#333333;" vertex="1" parent="EO7N8vqKN83MjDOOd26v-1">
          <mxGeometry x="260" y="400" width="40" height="40" as="geometry" />
        </mxCell>
        <mxCell id="EO7N8vqKN83MjDOOd26v-42" style="edgeStyle=orthogonalEdgeStyle;curved=1;rounded=0;orthogonalLoop=1;jettySize=auto;html=1;startSize=0;endArrow=classic;endFill=1;entryX=0.5;entryY=0;entryDx=0;entryDy=0;exitX=0.5;exitY=1;exitDx=0;exitDy=0;" edge="1" parent="EO7N8vqKN83MjDOOd26v-1" source="EO7N8vqKN83MjDOOd26v-44" target="EO7N8vqKN83MjDOOd26v-66">
          <mxGeometry relative="1" as="geometry">
            <mxPoint x="480" y="480" as="targetPoint" />
            <mxPoint x="500" y="440" as="sourcePoint" />
          </mxGeometry>
        </mxCell>
        <mxCell id="EO7N8vqKN83MjDOOd26v-43" value="$$\small B$$" style="edgeLabel;html=1;align=left;verticalAlign=middle;resizable=0;points=[];labelBackgroundColor=none;" vertex="1" connectable="0" parent="EO7N8vqKN83MjDOOd26v-42">
          <mxGeometry x="-0.7333" y="-6" relative="1" as="geometry">
            <mxPoint x="6" y="14.479999999999999" as="offset" />
          </mxGeometry>
        </mxCell>
        <mxCell id="EO7N8vqKN83MjDOOd26v-44" value="$$f$$" style="rounded=1;whiteSpace=wrap;html=1;labelBackgroundColor=none;fillColor=#f5f5f5;strokeColor=#666666;fontColor=#333333;" vertex="1" parent="EO7N8vqKN83MjDOOd26v-1">
          <mxGeometry x="440" y="400" width="80" height="40" as="geometry" />
        </mxCell>
        <mxCell id="EO7N8vqKN83MjDOOd26v-45" style="edgeStyle=orthogonalEdgeStyle;curved=1;rounded=0;orthogonalLoop=1;jettySize=auto;html=1;startSize=0;endArrow=classic;endFill=1;entryX=0.5;entryY=0;entryDx=0;entryDy=0;" edge="1" parent="EO7N8vqKN83MjDOOd26v-1" target="EO7N8vqKN83MjDOOd26v-44">
          <mxGeometry relative="1" as="geometry">
            <mxPoint x="479.76" y="390" as="targetPoint" />
            <mxPoint x="480" y="360" as="sourcePoint" />
          </mxGeometry>
        </mxCell>
        <mxCell id="EO7N8vqKN83MjDOOd26v-46" value="$$\small A$$" style="edgeLabel;html=1;align=left;verticalAlign=middle;resizable=0;points=[];labelBackgroundColor=none;" vertex="1" connectable="0" parent="EO7N8vqKN83MjDOOd26v-45">
          <mxGeometry x="-0.1667" relative="1" as="geometry">
            <mxPoint y="3.33" as="offset" />
          </mxGeometry>
        </mxCell>
        <mxCell id="EO7N8vqKN83MjDOOd26v-47" value="" style="shape=doubleArrow;whiteSpace=wrap;html=1;strokeColor=none;fillColor=#E6E6E6;arrowWidth=0.43200000000000044;arrowSize=0.30399999999999977;" vertex="1" parent="EO7N8vqKN83MjDOOd26v-1">
          <mxGeometry x="570" y="410" width="100" height="100" as="geometry" />
        </mxCell>
        <mxCell id="EO7N8vqKN83MjDOOd26v-57" style="edgeStyle=orthogonalEdgeStyle;curved=1;rounded=0;orthogonalLoop=1;jettySize=auto;html=1;startSize=0;endArrow=classic;endFill=1;" edge="1" parent="EO7N8vqKN83MjDOOd26v-1" source="EO7N8vqKN83MjDOOd26v-59">
          <mxGeometry relative="1" as="geometry">
            <mxPoint x="800" y="560" as="targetPoint" />
          </mxGeometry>
        </mxCell>
        <mxCell id="EO7N8vqKN83MjDOOd26v-58" value="$$\small B$$" style="edgeLabel;html=1;align=left;verticalAlign=middle;resizable=0;points=[];labelBackgroundColor=none;" vertex="1" connectable="0" parent="EO7N8vqKN83MjDOOd26v-57">
          <mxGeometry x="0.1667" relative="1" as="geometry">
            <mxPoint y="-3.33" as="offset" />
          </mxGeometry>
        </mxCell>
        <mxCell id="EO7N8vqKN83MjDOOd26v-59" value="$$f$$" style="rounded=1;whiteSpace=wrap;html=1;labelBackgroundColor=none;fillColor=#f5f5f5;strokeColor=#666666;fontColor=#333333;" vertex="1" parent="EO7N8vqKN83MjDOOd26v-1">
          <mxGeometry x="760" y="480" width="80" height="40" as="geometry" />
        </mxCell>
        <mxCell id="EO7N8vqKN83MjDOOd26v-60" value="Indeed, for any \(f: A \to B\)," style="text;html=1;align=center;verticalAlign=middle;resizable=0;points=[];autosize=1;" vertex="1" parent="EO7N8vqKN83MjDOOd26v-1">
          <mxGeometry x="440" y="320" width="160" height="20" as="geometry" />
        </mxCell>
        <mxCell id="EO7N8vqKN83MjDOOd26v-62" style="edgeStyle=orthogonalEdgeStyle;rounded=0;orthogonalLoop=1;jettySize=auto;html=1;fontSize=12;curved=1;" edge="1" parent="EO7N8vqKN83MjDOOd26v-1" source="EO7N8vqKN83MjDOOd26v-66">
          <mxGeometry relative="1" as="geometry">
            <mxPoint x="459.97" y="560" as="targetPoint" />
            <Array as="points">
              <mxPoint x="479.97" y="530" />
              <mxPoint x="459.97" y="530" />
            </Array>
          </mxGeometry>
        </mxCell>
        <mxCell id="EO7N8vqKN83MjDOOd26v-63" value="$$\scriptsize\mathrm{Block}_c$$" style="edgeLabel;html=1;align=left;verticalAlign=middle;resizable=0;points=[];fontSize=12;labelBackgroundColor=none;" vertex="1" connectable="0" parent="EO7N8vqKN83MjDOOd26v-62">
          <mxGeometry x="0.1111" relative="1" as="geometry">
            <mxPoint y="6.67" as="offset" />
          </mxGeometry>
        </mxCell>
        <mxCell id="EO7N8vqKN83MjDOOd26v-64" style="edgeStyle=orthogonalEdgeStyle;curved=1;rounded=0;orthogonalLoop=1;jettySize=auto;html=1;fontSize=12;" edge="1" parent="EO7N8vqKN83MjDOOd26v-1" source="EO7N8vqKN83MjDOOd26v-66">
          <mxGeometry relative="1" as="geometry">
            <mxPoint x="499.97" y="560" as="targetPoint" />
            <Array as="points">
              <mxPoint x="479.97" y="530" />
              <mxPoint x="499.97" y="530" />
            </Array>
          </mxGeometry>
        </mxCell>
        <mxCell id="EO7N8vqKN83MjDOOd26v-65" value="$$\small B$$" style="edgeLabel;html=1;align=left;verticalAlign=middle;resizable=0;points=[];fontSize=12;labelBackgroundColor=none;" vertex="1" connectable="0" parent="EO7N8vqKN83MjDOOd26v-64">
          <mxGeometry x="0.3222" y="-1" relative="1" as="geometry">
            <mxPoint x="0.96" y="0.33" as="offset" />
          </mxGeometry>
        </mxCell>
        <mxCell id="EO7N8vqKN83MjDOOd26v-66" value="$$1$$" style="rhombus;whiteSpace=wrap;html=1;fontSize=12;align=center;rounded=0;fillColor=#f5f5f5;strokeColor=#666666;fontColor=#333333;" vertex="1" parent="EO7N8vqKN83MjDOOd26v-1">
          <mxGeometry x="459.97" y="480" width="40" height="40" as="geometry" />
        </mxCell>
        <mxCell id="EO7N8vqKN83MjDOOd26v-67" style="edgeStyle=orthogonalEdgeStyle;curved=1;rounded=0;orthogonalLoop=1;jettySize=auto;html=1;entryX=0.5;entryY=0;entryDx=0;entryDy=0;" edge="1" parent="EO7N8vqKN83MjDOOd26v-1" target="EO7N8vqKN83MjDOOd26v-73">
          <mxGeometry relative="1" as="geometry">
            <mxPoint x="739.83" y="400" as="targetPoint" />
            <mxPoint x="740" y="360" as="sourcePoint" />
          </mxGeometry>
        </mxCell>
        <mxCell id="EO7N8vqKN83MjDOOd26v-68" value="$$\small A$$" style="edgeLabel;html=1;align=left;verticalAlign=middle;resizable=0;points=[];labelBackgroundColor=none;" vertex="1" connectable="0" parent="EO7N8vqKN83MjDOOd26v-67">
          <mxGeometry x="-0.3194" y="-1" relative="1" as="geometry">
            <mxPoint x="1" y="6.39" as="offset" />
          </mxGeometry>
        </mxCell>
        <mxCell id="EO7N8vqKN83MjDOOd26v-69" style="edgeStyle=orthogonalEdgeStyle;rounded=0;orthogonalLoop=1;jettySize=auto;html=1;fontSize=12;curved=1;exitX=0.5;exitY=1;exitDx=0;exitDy=0;" edge="1" parent="EO7N8vqKN83MjDOOd26v-1" source="EO7N8vqKN83MjDOOd26v-73">
          <mxGeometry relative="1" as="geometry">
            <mxPoint x="720" y="560" as="targetPoint" />
            <Array as="points">
              <mxPoint x="740" y="460" />
              <mxPoint x="720" y="460" />
            </Array>
          </mxGeometry>
        </mxCell>
        <mxCell id="EO7N8vqKN83MjDOOd26v-70" value="$$\scriptsize\mathrm{Block}_c$$" style="edgeLabel;html=1;align=left;verticalAlign=middle;resizable=0;points=[];fontSize=12;labelBackgroundColor=none;" vertex="1" connectable="0" parent="EO7N8vqKN83MjDOOd26v-69">
          <mxGeometry x="0.1111" relative="1" as="geometry">
            <mxPoint x="-0.02" y="42.29" as="offset" />
          </mxGeometry>
        </mxCell>
        <mxCell id="EO7N8vqKN83MjDOOd26v-71" style="edgeStyle=orthogonalEdgeStyle;curved=1;rounded=0;orthogonalLoop=1;jettySize=auto;html=1;fontSize=12;entryX=0.5;entryY=0;entryDx=0;entryDy=0;exitX=0.5;exitY=1;exitDx=0;exitDy=0;" edge="1" parent="EO7N8vqKN83MjDOOd26v-1" source="EO7N8vqKN83MjDOOd26v-73" target="EO7N8vqKN83MjDOOd26v-59">
          <mxGeometry relative="1" as="geometry">
            <mxPoint x="760" y="480" as="targetPoint" />
            <Array as="points">
              <mxPoint x="740" y="460" />
              <mxPoint x="800" y="460" />
            </Array>
          </mxGeometry>
        </mxCell>
        <mxCell id="EO7N8vqKN83MjDOOd26v-72" value="$$\small A$$" style="edgeLabel;html=1;align=left;verticalAlign=middle;resizable=0;points=[];fontSize=12;labelBackgroundColor=none;" vertex="1" connectable="0" parent="EO7N8vqKN83MjDOOd26v-71">
          <mxGeometry x="0.3222" y="-1" relative="1" as="geometry">
            <mxPoint x="-16.29" y="-11.03" as="offset" />
          </mxGeometry>
        </mxCell>
        <mxCell id="EO7N8vqKN83MjDOOd26v-73" value="$$1$$" style="rhombus;whiteSpace=wrap;html=1;fontSize=12;align=center;rounded=0;fillColor=#f5f5f5;strokeColor=#666666;fontColor=#333333;" vertex="1" parent="EO7N8vqKN83MjDOOd26v-1">
          <mxGeometry x="720" y="400" width="40" height="40" as="geometry" />
        </mxCell>
      </root>
    </mxGraphModel>
  </diagram>
  <diagram name="Using Monadic Unit" id="sUDWUHZ9hBxpsdraXp0y">
    <mxGraphModel dx="810" dy="449" grid="1" gridSize="10" guides="1" tooltips="1" connect="1" arrows="1" fold="1" page="1" pageScale="1" pageWidth="980" pageHeight="690" math="1" shadow="0">
      <root>
        <mxCell id="8Kkyf4z9Z9P8M_0PQmB3-0" />
        <mxCell id="8Kkyf4z9Z9P8M_0PQmB3-1" parent="8Kkyf4z9Z9P8M_0PQmB3-0" />
        <mxCell id="8Kkyf4z9Z9P8M_0PQmB3-2" value="&lt;h1&gt;Using Monadic Unit&lt;br&gt;&lt;/h1&gt;" style="text;align=center;verticalAlign=middle;resizable=0;points=[];autosize=1;labelBorderColor=none;labelBackgroundColor=none;html=1;" vertex="1" parent="8Kkyf4z9Z9P8M_0PQmB3-1">
          <mxGeometry x="40" y="30" width="240" height="50" as="geometry" />
        </mxCell>
        <mxCell id="8Kkyf4z9Z9P8M_0PQmB3-5" value="Monadic unit can adapt any regular transformation&lt;br style=&quot;font-size: 12px&quot;&gt;to the monadic interface." style="text;html=1;align=left;verticalAlign=middle;resizable=0;points=[];autosize=1;fontSize=12;" vertex="1" parent="8Kkyf4z9Z9P8M_0PQmB3-1">
          <mxGeometry x="40" y="120" width="280" height="30" as="geometry" />
        </mxCell>
        <mxCell id="8Kkyf4z9Z9P8M_0PQmB3-24" style="edgeStyle=orthogonalEdgeStyle;rounded=0;orthogonalLoop=1;jettySize=auto;html=1;fontSize=12;curved=1;" edge="1" parent="8Kkyf4z9Z9P8M_0PQmB3-1" source="8Kkyf4z9Z9P8M_0PQmB3-26">
          <mxGeometry relative="1" as="geometry">
            <mxPoint x="80" y="440" as="targetPoint" />
            <Array as="points">
              <mxPoint x="80" y="420" />
              <mxPoint x="80" y="420" />
            </Array>
          </mxGeometry>
        </mxCell>
        <mxCell id="8Kkyf4z9Z9P8M_0PQmB3-25" value="$$\scriptsize\mathrm{Block}_c$$" style="edgeLabel;html=1;align=left;verticalAlign=middle;resizable=0;points=[];fontSize=12;labelBackgroundColor=none;" vertex="1" connectable="0" parent="8Kkyf4z9Z9P8M_0PQmB3-24">
          <mxGeometry x="0.1111" relative="1" as="geometry">
            <mxPoint x="-0.03" y="-2.26" as="offset" />
          </mxGeometry>
        </mxCell>
        <mxCell id="8Kkyf4z9Z9P8M_0PQmB3-26" value="$$1$$" style="rhombus;whiteSpace=wrap;html=1;fillColor=#f5f5f5;fontSize=12;align=center;rounded=0;strokeColor=#666666;fontColor=#333333;" vertex="1" parent="8Kkyf4z9Z9P8M_0PQmB3-1">
          <mxGeometry x="60" y="360" width="40" height="40" as="geometry" />
        </mxCell>
        <mxCell id="8Kkyf4z9Z9P8M_0PQmB3-27" style="edgeStyle=orthogonalEdgeStyle;curved=1;rounded=0;orthogonalLoop=1;jettySize=auto;html=1;startSize=0;endArrow=classic;endFill=1;entryX=0.5;entryY=0;entryDx=0;entryDy=0;exitX=0.5;exitY=1;exitDx=0;exitDy=0;" edge="1" parent="8Kkyf4z9Z9P8M_0PQmB3-1" source="8Kkyf4z9Z9P8M_0PQmB3-29">
          <mxGeometry relative="1" as="geometry">
            <mxPoint x="79.97000000000003" y="320" as="targetPoint" />
            <mxPoint x="100" y="280" as="sourcePoint" />
          </mxGeometry>
        </mxCell>
        <mxCell id="8Kkyf4z9Z9P8M_0PQmB3-28" value="$$\small B$$" style="edgeLabel;html=1;align=left;verticalAlign=middle;resizable=0;points=[];labelBackgroundColor=none;" vertex="1" connectable="0" parent="8Kkyf4z9Z9P8M_0PQmB3-27">
          <mxGeometry x="-0.7333" y="-6" relative="1" as="geometry">
            <mxPoint x="6" y="14.479999999999999" as="offset" />
          </mxGeometry>
        </mxCell>
        <mxCell id="8Kkyf4z9Z9P8M_0PQmB3-29" value="$$f$$" style="rounded=1;whiteSpace=wrap;html=1;labelBackgroundColor=none;fillColor=#f5f5f5;strokeColor=#666666;fontColor=#333333;" vertex="1" parent="8Kkyf4z9Z9P8M_0PQmB3-1">
          <mxGeometry x="40" y="240" width="80" height="40" as="geometry" />
        </mxCell>
        <mxCell id="8Kkyf4z9Z9P8M_0PQmB3-30" style="edgeStyle=orthogonalEdgeStyle;curved=1;rounded=0;orthogonalLoop=1;jettySize=auto;html=1;startSize=0;endArrow=classic;endFill=1;entryX=0.5;entryY=0;entryDx=0;entryDy=0;" edge="1" parent="8Kkyf4z9Z9P8M_0PQmB3-1" target="8Kkyf4z9Z9P8M_0PQmB3-29">
          <mxGeometry relative="1" as="geometry">
            <mxPoint x="79.75999999999999" y="230" as="targetPoint" />
            <mxPoint x="80" y="200" as="sourcePoint" />
          </mxGeometry>
        </mxCell>
        <mxCell id="8Kkyf4z9Z9P8M_0PQmB3-31" value="$$\small A$$" style="edgeLabel;html=1;align=left;verticalAlign=middle;resizable=0;points=[];labelBackgroundColor=none;" vertex="1" connectable="0" parent="8Kkyf4z9Z9P8M_0PQmB3-30">
          <mxGeometry x="-0.1667" relative="1" as="geometry">
            <mxPoint y="3.33" as="offset" />
          </mxGeometry>
        </mxCell>
        <mxCell id="NLIorwrwxNCo1lMcs7BX-0" value="" style="html=1;shadow=0;dashed=0;align=center;verticalAlign=middle;shape=mxgraph.arrows2.arrow;dy=0.6;dx=40;notch=0;labelBackgroundColor=none;strokeColor=none;fillColor=#E6E6E6;" vertex="1" parent="8Kkyf4z9Z9P8M_0PQmB3-1">
          <mxGeometry x="170" y="270" width="100" height="100" as="geometry" />
        </mxCell>
        <mxCell id="NLIorwrwxNCo1lMcs7BX-1" style="edgeStyle=orthogonalEdgeStyle;rounded=0;orthogonalLoop=1;jettySize=auto;html=1;fontSize=12;curved=1;" edge="1" parent="8Kkyf4z9Z9P8M_0PQmB3-1" source="NLIorwrwxNCo1lMcs7BX-3">
          <mxGeometry relative="1" as="geometry">
            <mxPoint x="350" y="440" as="targetPoint" />
            <Array as="points">
              <mxPoint x="350" y="360" />
              <mxPoint x="350" y="360" />
            </Array>
          </mxGeometry>
        </mxCell>
        <mxCell id="NLIorwrwxNCo1lMcs7BX-2" value="$$\scriptsize\mathrm{Block}_c$$" style="edgeLabel;html=1;align=left;verticalAlign=middle;resizable=0;points=[];fontSize=12;labelBackgroundColor=none;" vertex="1" connectable="0" parent="NLIorwrwxNCo1lMcs7BX-1">
          <mxGeometry x="0.1111" relative="1" as="geometry">
            <mxPoint y="24.4" as="offset" />
          </mxGeometry>
        </mxCell>
        <mxCell id="NLIorwrwxNCo1lMcs7BX-3" value="$$1$$" style="rhombus;whiteSpace=wrap;html=1;fillColor=#f5f5f5;fontSize=12;align=center;rounded=0;strokeColor=#666666;fontColor=#333333;" vertex="1" parent="8Kkyf4z9Z9P8M_0PQmB3-1">
          <mxGeometry x="330" y="300" width="40" height="40" as="geometry" />
        </mxCell>
        <mxCell id="NLIorwrwxNCo1lMcs7BX-4" style="edgeStyle=orthogonalEdgeStyle;curved=1;rounded=0;orthogonalLoop=1;jettySize=auto;html=1;startSize=0;endArrow=classic;endFill=1;exitX=0.5;exitY=1;exitDx=0;exitDy=0;" edge="1" parent="8Kkyf4z9Z9P8M_0PQmB3-1" source="NLIorwrwxNCo1lMcs7BX-6">
          <mxGeometry relative="1" as="geometry">
            <mxPoint x="430" y="440" as="targetPoint" />
            <mxPoint x="450" y="340" as="sourcePoint" />
          </mxGeometry>
        </mxCell>
        <mxCell id="NLIorwrwxNCo1lMcs7BX-5" value="$$\small B$$" style="edgeLabel;html=1;align=left;verticalAlign=middle;resizable=0;points=[];labelBackgroundColor=none;" vertex="1" connectable="0" parent="NLIorwrwxNCo1lMcs7BX-4">
          <mxGeometry x="-0.7333" y="-6" relative="1" as="geometry">
            <mxPoint x="6" y="66.8" as="offset" />
          </mxGeometry>
        </mxCell>
        <mxCell id="NLIorwrwxNCo1lMcs7BX-6" value="$$f$$" style="rounded=1;whiteSpace=wrap;html=1;labelBackgroundColor=none;fillColor=#f5f5f5;strokeColor=#666666;fontColor=#333333;" vertex="1" parent="8Kkyf4z9Z9P8M_0PQmB3-1">
          <mxGeometry x="390" y="300" width="80" height="40" as="geometry" />
        </mxCell>
        <mxCell id="NLIorwrwxNCo1lMcs7BX-7" style="edgeStyle=orthogonalEdgeStyle;curved=1;rounded=0;orthogonalLoop=1;jettySize=auto;html=1;startSize=0;endArrow=classic;endFill=1;entryX=0.5;entryY=0;entryDx=0;entryDy=0;" edge="1" parent="8Kkyf4z9Z9P8M_0PQmB3-1" target="NLIorwrwxNCo1lMcs7BX-6">
          <mxGeometry relative="1" as="geometry">
            <mxPoint x="429.76" y="290" as="targetPoint" />
            <mxPoint x="430" y="200" as="sourcePoint" />
          </mxGeometry>
        </mxCell>
        <mxCell id="NLIorwrwxNCo1lMcs7BX-8" value="$$\small A$$" style="edgeLabel;html=1;align=left;verticalAlign=middle;resizable=0;points=[];labelBackgroundColor=none;" vertex="1" connectable="0" parent="NLIorwrwxNCo1lMcs7BX-7">
          <mxGeometry x="-0.1667" relative="1" as="geometry">
            <mxPoint y="-22" as="offset" />
          </mxGeometry>
        </mxCell>
        <mxCell id="5oDx7iiJQrHR-JKIsG6R-0" style="edgeStyle=orthogonalEdgeStyle;rounded=0;orthogonalLoop=1;jettySize=auto;html=1;curved=1;exitX=0.75;exitY=1;exitDx=0;exitDy=0;" edge="1" parent="8Kkyf4z9Z9P8M_0PQmB3-1" source="5oDx7iiJQrHR-JKIsG6R-4">
          <mxGeometry relative="1" as="geometry">
            <mxPoint x="620" y="380" as="targetPoint" />
          </mxGeometry>
        </mxCell>
        <mxCell id="5oDx7iiJQrHR-JKIsG6R-1" value="$$\small B$$" style="edgeLabel;html=1;align=left;verticalAlign=middle;resizable=0;points=[];labelBackgroundColor=none;" vertex="1" connectable="0" parent="5oDx7iiJQrHR-JKIsG6R-0">
          <mxGeometry x="-0.2361" relative="1" as="geometry">
            <mxPoint y="4.72" as="offset" />
          </mxGeometry>
        </mxCell>
        <mxCell id="5oDx7iiJQrHR-JKIsG6R-2" style="edgeStyle=orthogonalEdgeStyle;curved=1;rounded=0;orthogonalLoop=1;jettySize=auto;html=1;entryX=0.5;entryY=0;entryDx=0;entryDy=0;" edge="1" parent="8Kkyf4z9Z9P8M_0PQmB3-1" target="5oDx7iiJQrHR-JKIsG6R-4">
          <mxGeometry relative="1" as="geometry">
            <mxPoint x="599.9411764705883" y="260" as="targetPoint" />
            <mxPoint x="600" y="260" as="sourcePoint" />
          </mxGeometry>
        </mxCell>
        <mxCell id="5oDx7iiJQrHR-JKIsG6R-3" value="$$\small A$$" style="edgeLabel;html=1;align=left;verticalAlign=middle;resizable=0;points=[];labelBackgroundColor=none;" vertex="1" connectable="0" parent="5oDx7iiJQrHR-JKIsG6R-2">
          <mxGeometry x="-0.3194" y="-1" relative="1" as="geometry">
            <mxPoint x="1" y="6.39" as="offset" />
          </mxGeometry>
        </mxCell>
        <mxCell id="5oDx7iiJQrHR-JKIsG6R-4" value="" style="rounded=1;whiteSpace=wrap;html=1;labelBackgroundColor=none;strokeColor=#666666;fontColor=#333333;fillColor=none;dashed=1;" vertex="1" parent="8Kkyf4z9Z9P8M_0PQmB3-1">
          <mxGeometry x="560" y="300" width="80" height="40" as="geometry" />
        </mxCell>
        <mxCell id="5oDx7iiJQrHR-JKIsG6R-5" style="edgeStyle=orthogonalEdgeStyle;rounded=0;orthogonalLoop=1;jettySize=auto;html=1;curved=1;exitX=0.25;exitY=1;exitDx=0;exitDy=0;" edge="1" parent="8Kkyf4z9Z9P8M_0PQmB3-1" source="5oDx7iiJQrHR-JKIsG6R-4">
          <mxGeometry relative="1" as="geometry">
            <mxPoint x="580" y="380" as="targetPoint" />
            <mxPoint x="860" y="340" as="sourcePoint" />
          </mxGeometry>
        </mxCell>
        <mxCell id="5oDx7iiJQrHR-JKIsG6R-6" value="$$\scriptsize\mathrm{Block}_c$$" style="edgeLabel;html=1;align=left;verticalAlign=middle;resizable=0;points=[];labelBackgroundColor=none;" vertex="1" connectable="0" parent="5oDx7iiJQrHR-JKIsG6R-5">
          <mxGeometry x="0.6486" y="-1" relative="1" as="geometry">
            <mxPoint y="-13.14" as="offset" />
          </mxGeometry>
        </mxCell>
        <mxCell id="5oDx7iiJQrHR-JKIsG6R-7" value="" style="rounded=0;whiteSpace=wrap;html=1;labelBackgroundColor=none;strokeColor=#666666;fontColor=#333333;fillColor=none;dashed=1;" vertex="1" parent="8Kkyf4z9Z9P8M_0PQmB3-1">
          <mxGeometry x="320" y="240" width="160" height="160" as="geometry" />
        </mxCell>
        <mxCell id="k8SYkbpMM6FY-_IcMYwk-0" value="" style="shape=curlyBracket;whiteSpace=wrap;html=1;rounded=1;labelBackgroundColor=none;opacity=75;align=left;flipV=0;flipH=1;size=0.5;" vertex="1" parent="8Kkyf4z9Z9P8M_0PQmB3-1">
          <mxGeometry x="530" y="200" width="20" height="240" as="geometry" />
        </mxCell>
      </root>
    </mxGraphModel>
  </diagram>
  <diagram name="Monadic Interface: Examples" id="E9baKWIv8hAy_rRgMhqw">
    <mxGraphModel dx="810" dy="449" grid="1" gridSize="10" guides="1" tooltips="1" connect="1" arrows="1" fold="1" page="1" pageScale="1" pageWidth="980" pageHeight="690" math="1" shadow="0">
      <root>
        <mxCell id="CZb8hRHTpyJP-qP2cbdJ-0" />
        <mxCell id="CZb8hRHTpyJP-qP2cbdJ-1" parent="CZb8hRHTpyJP-qP2cbdJ-0" />
        <mxCell id="CZb8hRHTpyJP-qP2cbdJ-2" value="&lt;h1&gt;Monadic Interface: Examples&lt;br&gt;&lt;/h1&gt;" style="text;align=center;verticalAlign=middle;resizable=0;points=[];autosize=1;labelBorderColor=none;labelBackgroundColor=none;html=1;" vertex="1" parent="CZb8hRHTpyJP-qP2cbdJ-1">
          <mxGeometry x="40" y="30" width="350" height="50" as="geometry" />
        </mxCell>
        <mxCell id="CZb8hRHTpyJP-qP2cbdJ-3" style="edgeStyle=orthogonalEdgeStyle;rounded=0;orthogonalLoop=1;jettySize=auto;html=1;curved=1;exitX=0.75;exitY=1;exitDx=0;exitDy=0;" edge="1" parent="CZb8hRHTpyJP-qP2cbdJ-1" source="CZb8hRHTpyJP-qP2cbdJ-7">
          <mxGeometry relative="1" as="geometry">
            <mxPoint x="100" y="240" as="targetPoint" />
          </mxGeometry>
        </mxCell>
        <mxCell id="CZb8hRHTpyJP-qP2cbdJ-4" value="$$\small B$$" style="edgeLabel;html=1;align=left;verticalAlign=middle;resizable=0;points=[];labelBackgroundColor=none;" vertex="1" connectable="0" parent="CZb8hRHTpyJP-qP2cbdJ-3">
          <mxGeometry x="-0.2361" relative="1" as="geometry">
            <mxPoint y="4.72" as="offset" />
          </mxGeometry>
        </mxCell>
        <mxCell id="CZb8hRHTpyJP-qP2cbdJ-5" style="edgeStyle=orthogonalEdgeStyle;curved=1;rounded=0;orthogonalLoop=1;jettySize=auto;html=1;entryX=0.5;entryY=0;entryDx=0;entryDy=0;" edge="1" parent="CZb8hRHTpyJP-qP2cbdJ-1" target="CZb8hRHTpyJP-qP2cbdJ-7">
          <mxGeometry relative="1" as="geometry">
            <mxPoint x="79.94117647058829" y="120" as="targetPoint" />
            <mxPoint x="80" y="120" as="sourcePoint" />
          </mxGeometry>
        </mxCell>
        <mxCell id="CZb8hRHTpyJP-qP2cbdJ-6" value="$$\small A$$" style="edgeLabel;html=1;align=left;verticalAlign=middle;resizable=0;points=[];labelBackgroundColor=none;" vertex="1" connectable="0" parent="CZb8hRHTpyJP-qP2cbdJ-5">
          <mxGeometry x="-0.3194" y="-1" relative="1" as="geometry">
            <mxPoint x="1" y="6.39" as="offset" />
          </mxGeometry>
        </mxCell>
        <mxCell id="CZb8hRHTpyJP-qP2cbdJ-7" value="" style="rounded=1;whiteSpace=wrap;html=1;labelBackgroundColor=none;strokeColor=#666666;fontColor=#333333;fillColor=none;dashed=1;" vertex="1" parent="CZb8hRHTpyJP-qP2cbdJ-1">
          <mxGeometry x="40" y="160" width="80" height="40" as="geometry" />
        </mxCell>
        <mxCell id="CZb8hRHTpyJP-qP2cbdJ-8" style="edgeStyle=orthogonalEdgeStyle;rounded=0;orthogonalLoop=1;jettySize=auto;html=1;curved=1;exitX=0.25;exitY=1;exitDx=0;exitDy=0;" edge="1" parent="CZb8hRHTpyJP-qP2cbdJ-1" source="CZb8hRHTpyJP-qP2cbdJ-7">
          <mxGeometry relative="1" as="geometry">
            <mxPoint x="60" y="240" as="targetPoint" />
            <mxPoint x="340" y="200" as="sourcePoint" />
          </mxGeometry>
        </mxCell>
        <mxCell id="CZb8hRHTpyJP-qP2cbdJ-9" value="$$\scriptsize\mathrm{Block}_c$$" style="edgeLabel;html=1;align=left;verticalAlign=middle;resizable=0;points=[];labelBackgroundColor=none;" vertex="1" connectable="0" parent="CZb8hRHTpyJP-qP2cbdJ-8">
          <mxGeometry x="0.6486" y="-1" relative="1" as="geometry">
            <mxPoint y="-13.14" as="offset" />
          </mxGeometry>
        </mxCell>
        <mxCell id="CZb8hRHTpyJP-qP2cbdJ-10" style="edgeStyle=orthogonalEdgeStyle;rounded=0;orthogonalLoop=1;jettySize=auto;html=1;curved=1;exitX=0.25;exitY=1;exitDx=0;exitDy=0;" edge="1" parent="CZb8hRHTpyJP-qP2cbdJ-1" source="CZb8hRHTpyJP-qP2cbdJ-16">
          <mxGeometry relative="1" as="geometry">
            <mxPoint x="220" y="240" as="targetPoint" />
          </mxGeometry>
        </mxCell>
        <mxCell id="CZb8hRHTpyJP-qP2cbdJ-11" value="$$\scriptsize\mathrm{Block}_{0:N}$$" style="edgeLabel;html=1;align=left;verticalAlign=middle;resizable=0;points=[];labelBackgroundColor=none;" vertex="1" connectable="0" parent="CZb8hRHTpyJP-qP2cbdJ-10">
          <mxGeometry x="0.6486" y="-1" relative="1" as="geometry">
            <mxPoint y="-13.14" as="offset" />
          </mxGeometry>
        </mxCell>
        <mxCell id="CZb8hRHTpyJP-qP2cbdJ-12" style="edgeStyle=orthogonalEdgeStyle;curved=1;rounded=0;orthogonalLoop=1;jettySize=auto;html=1;entryX=0.5;entryY=0;entryDx=0;entryDy=0;" edge="1" parent="CZb8hRHTpyJP-qP2cbdJ-1" target="CZb8hRHTpyJP-qP2cbdJ-16">
          <mxGeometry relative="1" as="geometry">
            <mxPoint x="239.9411764705883" y="120" as="targetPoint" />
            <mxPoint x="240" y="120" as="sourcePoint" />
          </mxGeometry>
        </mxCell>
        <mxCell id="CZb8hRHTpyJP-qP2cbdJ-13" value="$$\scriptsize\mathsf{DB}$$" style="edgeLabel;html=1;align=left;verticalAlign=middle;resizable=0;points=[];labelBackgroundColor=none;" vertex="1" connectable="0" parent="CZb8hRHTpyJP-qP2cbdJ-12">
          <mxGeometry x="-0.3194" y="-1" relative="1" as="geometry">
            <mxPoint x="1" y="6.39" as="offset" />
          </mxGeometry>
        </mxCell>
        <mxCell id="CZb8hRHTpyJP-qP2cbdJ-14" style="edgeStyle=orthogonalEdgeStyle;rounded=0;orthogonalLoop=1;jettySize=auto;html=1;endArrow=classic;endFill=1;curved=1;exitX=0.75;exitY=1;exitDx=0;exitDy=0;" edge="1" parent="CZb8hRHTpyJP-qP2cbdJ-1" source="CZb8hRHTpyJP-qP2cbdJ-16">
          <mxGeometry relative="1" as="geometry">
            <mxPoint x="260" y="240" as="targetPoint" />
            <mxPoint x="260" y="210" as="sourcePoint" />
            <Array as="points">
              <mxPoint x="260" y="230" />
              <mxPoint x="260" y="230" />
            </Array>
          </mxGeometry>
        </mxCell>
        <mxCell id="CZb8hRHTpyJP-qP2cbdJ-15" value="$$\scriptsize\mathsf{Dept}$$" style="edgeLabel;html=1;align=left;verticalAlign=middle;resizable=0;points=[];labelBackgroundColor=none;" vertex="1" connectable="0" parent="CZb8hRHTpyJP-qP2cbdJ-14">
          <mxGeometry x="0.7262" y="1" relative="1" as="geometry">
            <mxPoint x="-1.01" y="-14.29" as="offset" />
          </mxGeometry>
        </mxCell>
        <mxCell id="CZb8hRHTpyJP-qP2cbdJ-16" value="$$\small\mathsf{department}$$" style="rounded=1;whiteSpace=wrap;html=1;labelBackgroundColor=none;fillColor=#f5f5f5;strokeColor=#666666;fontColor=#333333;" vertex="1" parent="CZb8hRHTpyJP-qP2cbdJ-1">
          <mxGeometry x="200" y="160" width="80" height="40" as="geometry" />
        </mxCell>
        <mxCell id="CZb8hRHTpyJP-qP2cbdJ-19" style="edgeStyle=orthogonalEdgeStyle;rounded=0;orthogonalLoop=1;jettySize=auto;html=1;curved=1;exitX=0.25;exitY=1;exitDx=0;exitDy=0;" edge="1" parent="CZb8hRHTpyJP-qP2cbdJ-1" source="CZb8hRHTpyJP-qP2cbdJ-25">
          <mxGeometry relative="1" as="geometry">
            <mxPoint x="340" y="240" as="targetPoint" />
          </mxGeometry>
        </mxCell>
        <mxCell id="CZb8hRHTpyJP-qP2cbdJ-20" value="$$\scriptsize\mathrm{Block}_{0:N}$$" style="edgeLabel;html=1;align=left;verticalAlign=middle;resizable=0;points=[];labelBackgroundColor=none;" vertex="1" connectable="0" parent="CZb8hRHTpyJP-qP2cbdJ-19">
          <mxGeometry x="0.6486" y="-1" relative="1" as="geometry">
            <mxPoint y="-13.14" as="offset" />
          </mxGeometry>
        </mxCell>
        <mxCell id="CZb8hRHTpyJP-qP2cbdJ-21" style="edgeStyle=orthogonalEdgeStyle;curved=1;rounded=0;orthogonalLoop=1;jettySize=auto;html=1;entryX=0.5;entryY=0;entryDx=0;entryDy=0;" edge="1" parent="CZb8hRHTpyJP-qP2cbdJ-1" target="CZb8hRHTpyJP-qP2cbdJ-25">
          <mxGeometry relative="1" as="geometry">
            <mxPoint x="359.9411764705883" y="120" as="targetPoint" />
            <mxPoint x="360" y="120" as="sourcePoint" />
          </mxGeometry>
        </mxCell>
        <mxCell id="CZb8hRHTpyJP-qP2cbdJ-22" value="$$\scriptsize\mathsf{DB}$$" style="edgeLabel;html=1;align=left;verticalAlign=middle;resizable=0;points=[];labelBackgroundColor=none;" vertex="1" connectable="0" parent="CZb8hRHTpyJP-qP2cbdJ-21">
          <mxGeometry x="-0.3194" y="-1" relative="1" as="geometry">
            <mxPoint x="1" y="6.39" as="offset" />
          </mxGeometry>
        </mxCell>
        <mxCell id="CZb8hRHTpyJP-qP2cbdJ-23" style="edgeStyle=orthogonalEdgeStyle;rounded=0;orthogonalLoop=1;jettySize=auto;html=1;endArrow=classic;endFill=1;curved=1;exitX=0.75;exitY=1;exitDx=0;exitDy=0;" edge="1" parent="CZb8hRHTpyJP-qP2cbdJ-1" source="CZb8hRHTpyJP-qP2cbdJ-25">
          <mxGeometry relative="1" as="geometry">
            <mxPoint x="380" y="240" as="targetPoint" />
            <mxPoint x="380" y="210" as="sourcePoint" />
            <Array as="points">
              <mxPoint x="380" y="230" />
              <mxPoint x="380" y="230" />
            </Array>
          </mxGeometry>
        </mxCell>
        <mxCell id="CZb8hRHTpyJP-qP2cbdJ-24" value="$$\scriptsize\mathsf{Emp}$$" style="edgeLabel;html=1;align=left;verticalAlign=middle;resizable=0;points=[];labelBackgroundColor=none;" vertex="1" connectable="0" parent="CZb8hRHTpyJP-qP2cbdJ-23">
          <mxGeometry x="0.7262" y="1" relative="1" as="geometry">
            <mxPoint x="-1.01" y="-14.29" as="offset" />
          </mxGeometry>
        </mxCell>
        <mxCell id="CZb8hRHTpyJP-qP2cbdJ-25" value="$$\small\mathsf{employee}$$" style="rounded=1;whiteSpace=wrap;html=1;labelBackgroundColor=none;fillColor=#f5f5f5;strokeColor=#666666;fontColor=#333333;" vertex="1" parent="CZb8hRHTpyJP-qP2cbdJ-1">
          <mxGeometry x="320" y="160" width="80" height="40" as="geometry" />
        </mxCell>
        <mxCell id="CZb8hRHTpyJP-qP2cbdJ-26" style="edgeStyle=orthogonalEdgeStyle;rounded=0;orthogonalLoop=1;jettySize=auto;html=1;curved=1;exitX=0.25;exitY=1;exitDx=0;exitDy=0;" edge="1" parent="CZb8hRHTpyJP-qP2cbdJ-1" source="CZb8hRHTpyJP-qP2cbdJ-32">
          <mxGeometry relative="1" as="geometry">
            <mxPoint x="220" y="400" as="targetPoint" />
          </mxGeometry>
        </mxCell>
        <mxCell id="CZb8hRHTpyJP-qP2cbdJ-27" value="$$\scriptsize\mathrm{Block}_{0:N}$$" style="edgeLabel;html=1;align=left;verticalAlign=middle;resizable=0;points=[];labelBackgroundColor=none;" vertex="1" connectable="0" parent="CZb8hRHTpyJP-qP2cbdJ-26">
          <mxGeometry x="0.6486" y="-1" relative="1" as="geometry">
            <mxPoint y="-13.14" as="offset" />
          </mxGeometry>
        </mxCell>
        <mxCell id="CZb8hRHTpyJP-qP2cbdJ-28" style="edgeStyle=orthogonalEdgeStyle;curved=1;rounded=0;orthogonalLoop=1;jettySize=auto;html=1;entryX=0.5;entryY=0;entryDx=0;entryDy=0;" edge="1" parent="CZb8hRHTpyJP-qP2cbdJ-1" target="CZb8hRHTpyJP-qP2cbdJ-32">
          <mxGeometry relative="1" as="geometry">
            <mxPoint x="239.9411764705883" y="280" as="targetPoint" />
            <mxPoint x="240" y="280" as="sourcePoint" />
          </mxGeometry>
        </mxCell>
        <mxCell id="CZb8hRHTpyJP-qP2cbdJ-29" value="$$\scriptsize\mathsf{Dept}$$" style="edgeLabel;html=1;align=left;verticalAlign=middle;resizable=0;points=[];labelBackgroundColor=none;" vertex="1" connectable="0" parent="CZb8hRHTpyJP-qP2cbdJ-28">
          <mxGeometry x="-0.3194" y="-1" relative="1" as="geometry">
            <mxPoint x="1" y="6.39" as="offset" />
          </mxGeometry>
        </mxCell>
        <mxCell id="CZb8hRHTpyJP-qP2cbdJ-30" style="edgeStyle=orthogonalEdgeStyle;rounded=0;orthogonalLoop=1;jettySize=auto;html=1;endArrow=classic;endFill=1;curved=1;exitX=0.75;exitY=1;exitDx=0;exitDy=0;" edge="1" parent="CZb8hRHTpyJP-qP2cbdJ-1" source="CZb8hRHTpyJP-qP2cbdJ-32">
          <mxGeometry relative="1" as="geometry">
            <mxPoint x="260" y="400" as="targetPoint" />
            <mxPoint x="260" y="370" as="sourcePoint" />
            <Array as="points">
              <mxPoint x="260" y="390" />
              <mxPoint x="260" y="390" />
            </Array>
          </mxGeometry>
        </mxCell>
        <mxCell id="CZb8hRHTpyJP-qP2cbdJ-31" value="$$\scriptsize\mathsf{Emp}$$" style="edgeLabel;html=1;align=left;verticalAlign=middle;resizable=0;points=[];labelBackgroundColor=none;" vertex="1" connectable="0" parent="CZb8hRHTpyJP-qP2cbdJ-30">
          <mxGeometry x="0.7262" y="1" relative="1" as="geometry">
            <mxPoint x="-1.01" y="-14.29" as="offset" />
          </mxGeometry>
        </mxCell>
        <mxCell id="CZb8hRHTpyJP-qP2cbdJ-32" value="$$\small\mathsf{employee}$$" style="rounded=1;whiteSpace=wrap;html=1;labelBackgroundColor=none;fillColor=#f5f5f5;strokeColor=#666666;fontColor=#333333;" vertex="1" parent="CZb8hRHTpyJP-qP2cbdJ-1">
          <mxGeometry x="200" y="320" width="80" height="40" as="geometry" />
        </mxCell>
        <mxCell id="CZb8hRHTpyJP-qP2cbdJ-35" style="edgeStyle=orthogonalEdgeStyle;rounded=0;orthogonalLoop=1;jettySize=auto;html=1;curved=1;exitX=0.25;exitY=1;exitDx=0;exitDy=0;" edge="1" parent="CZb8hRHTpyJP-qP2cbdJ-1" source="CZb8hRHTpyJP-qP2cbdJ-41">
          <mxGeometry relative="1" as="geometry">
            <mxPoint x="340" y="400" as="targetPoint" />
          </mxGeometry>
        </mxCell>
        <mxCell id="CZb8hRHTpyJP-qP2cbdJ-36" value="$$\scriptsize\mathrm{Block}_{1:1}$$" style="edgeLabel;html=1;align=left;verticalAlign=middle;resizable=0;points=[];labelBackgroundColor=none;" vertex="1" connectable="0" parent="CZb8hRHTpyJP-qP2cbdJ-35">
          <mxGeometry x="0.6486" y="-1" relative="1" as="geometry">
            <mxPoint y="-13" as="offset" />
          </mxGeometry>
        </mxCell>
        <mxCell id="CZb8hRHTpyJP-qP2cbdJ-37" style="edgeStyle=orthogonalEdgeStyle;curved=1;rounded=0;orthogonalLoop=1;jettySize=auto;html=1;entryX=0.5;entryY=0;entryDx=0;entryDy=0;" edge="1" parent="CZb8hRHTpyJP-qP2cbdJ-1" target="CZb8hRHTpyJP-qP2cbdJ-41">
          <mxGeometry relative="1" as="geometry">
            <mxPoint x="359.9411764705883" y="280" as="targetPoint" />
            <mxPoint x="360" y="280" as="sourcePoint" />
          </mxGeometry>
        </mxCell>
        <mxCell id="CZb8hRHTpyJP-qP2cbdJ-38" value="$$\scriptsize\mathsf{Dept}$$" style="edgeLabel;html=1;align=left;verticalAlign=middle;resizable=0;points=[];labelBackgroundColor=none;" vertex="1" connectable="0" parent="CZb8hRHTpyJP-qP2cbdJ-37">
          <mxGeometry x="-0.3194" y="-1" relative="1" as="geometry">
            <mxPoint x="1" y="6.39" as="offset" />
          </mxGeometry>
        </mxCell>
        <mxCell id="CZb8hRHTpyJP-qP2cbdJ-39" style="edgeStyle=orthogonalEdgeStyle;rounded=0;orthogonalLoop=1;jettySize=auto;html=1;endArrow=classic;endFill=1;curved=1;exitX=0.75;exitY=1;exitDx=0;exitDy=0;" edge="1" parent="CZb8hRHTpyJP-qP2cbdJ-1" source="CZb8hRHTpyJP-qP2cbdJ-41">
          <mxGeometry relative="1" as="geometry">
            <mxPoint x="380" y="400" as="targetPoint" />
            <mxPoint x="380" y="370" as="sourcePoint" />
            <Array as="points">
              <mxPoint x="380" y="390" />
              <mxPoint x="380" y="390" />
            </Array>
          </mxGeometry>
        </mxCell>
        <mxCell id="CZb8hRHTpyJP-qP2cbdJ-40" value="$$\scriptsize\mathrm{String}$$" style="edgeLabel;html=1;align=left;verticalAlign=middle;resizable=0;points=[];labelBackgroundColor=none;" vertex="1" connectable="0" parent="CZb8hRHTpyJP-qP2cbdJ-39">
          <mxGeometry x="0.7262" y="1" relative="1" as="geometry">
            <mxPoint x="-1.01" y="-15" as="offset" />
          </mxGeometry>
        </mxCell>
        <mxCell id="CZb8hRHTpyJP-qP2cbdJ-41" value="$$\small\mathsf{name}$$" style="rounded=1;whiteSpace=wrap;html=1;labelBackgroundColor=none;fillColor=#f5f5f5;strokeColor=#666666;fontColor=#333333;" vertex="1" parent="CZb8hRHTpyJP-qP2cbdJ-1">
          <mxGeometry x="320" y="320" width="80" height="40" as="geometry" />
        </mxCell>
        <mxCell id="CZb8hRHTpyJP-qP2cbdJ-42" style="edgeStyle=orthogonalEdgeStyle;rounded=0;orthogonalLoop=1;jettySize=auto;html=1;curved=1;exitX=0.25;exitY=1;exitDx=0;exitDy=0;" edge="1" parent="CZb8hRHTpyJP-qP2cbdJ-1" source="CZb8hRHTpyJP-qP2cbdJ-48">
          <mxGeometry relative="1" as="geometry">
            <mxPoint x="220" y="560" as="targetPoint" />
          </mxGeometry>
        </mxCell>
        <mxCell id="CZb8hRHTpyJP-qP2cbdJ-43" value="$$\scriptsize\mathrm{Block}_{1:1}$$" style="edgeLabel;html=1;align=left;verticalAlign=middle;resizable=0;points=[];labelBackgroundColor=none;" vertex="1" connectable="0" parent="CZb8hRHTpyJP-qP2cbdJ-42">
          <mxGeometry x="0.6486" y="-1" relative="1" as="geometry">
            <mxPoint x="1" y="-13.14" as="offset" />
          </mxGeometry>
        </mxCell>
        <mxCell id="CZb8hRHTpyJP-qP2cbdJ-44" style="edgeStyle=orthogonalEdgeStyle;curved=1;rounded=0;orthogonalLoop=1;jettySize=auto;html=1;entryX=0.5;entryY=0;entryDx=0;entryDy=0;" edge="1" parent="CZb8hRHTpyJP-qP2cbdJ-1" target="CZb8hRHTpyJP-qP2cbdJ-48">
          <mxGeometry relative="1" as="geometry">
            <mxPoint x="239.9411764705883" y="440" as="targetPoint" />
            <mxPoint x="240" y="440" as="sourcePoint" />
          </mxGeometry>
        </mxCell>
        <mxCell id="CZb8hRHTpyJP-qP2cbdJ-45" value="$$\scriptsize\mathsf{Emp}$$" style="edgeLabel;html=1;align=left;verticalAlign=middle;resizable=0;points=[];labelBackgroundColor=none;" vertex="1" connectable="0" parent="CZb8hRHTpyJP-qP2cbdJ-44">
          <mxGeometry x="-0.3194" y="-1" relative="1" as="geometry">
            <mxPoint x="1" y="6.39" as="offset" />
          </mxGeometry>
        </mxCell>
        <mxCell id="CZb8hRHTpyJP-qP2cbdJ-46" style="edgeStyle=orthogonalEdgeStyle;rounded=0;orthogonalLoop=1;jettySize=auto;html=1;endArrow=classic;endFill=1;curved=1;exitX=0.75;exitY=1;exitDx=0;exitDy=0;" edge="1" parent="CZb8hRHTpyJP-qP2cbdJ-1" source="CZb8hRHTpyJP-qP2cbdJ-48">
          <mxGeometry relative="1" as="geometry">
            <mxPoint x="260" y="560" as="targetPoint" />
            <mxPoint x="260" y="530" as="sourcePoint" />
            <Array as="points">
              <mxPoint x="260" y="550" />
              <mxPoint x="260" y="550" />
            </Array>
          </mxGeometry>
        </mxCell>
        <mxCell id="CZb8hRHTpyJP-qP2cbdJ-47" value="$$\scriptsize\mathsf{Dept}$$" style="edgeLabel;html=1;align=left;verticalAlign=middle;resizable=0;points=[];labelBackgroundColor=none;" vertex="1" connectable="0" parent="CZb8hRHTpyJP-qP2cbdJ-46">
          <mxGeometry x="0.7262" y="1" relative="1" as="geometry">
            <mxPoint x="-1.01" y="-14.29" as="offset" />
          </mxGeometry>
        </mxCell>
        <mxCell id="CZb8hRHTpyJP-qP2cbdJ-48" value="$$\small\mathsf{department}$$" style="rounded=1;whiteSpace=wrap;html=1;labelBackgroundColor=none;fillColor=#f5f5f5;strokeColor=#666666;fontColor=#333333;" vertex="1" parent="CZb8hRHTpyJP-qP2cbdJ-1">
          <mxGeometry x="200" y="480" width="80" height="40" as="geometry" />
        </mxCell>
        <mxCell id="CZb8hRHTpyJP-qP2cbdJ-49" style="edgeStyle=orthogonalEdgeStyle;rounded=0;orthogonalLoop=1;jettySize=auto;html=1;curved=1;exitX=0.25;exitY=1;exitDx=0;exitDy=0;" edge="1" parent="CZb8hRHTpyJP-qP2cbdJ-1" source="CZb8hRHTpyJP-qP2cbdJ-55">
          <mxGeometry relative="1" as="geometry">
            <mxPoint x="340" y="560" as="targetPoint" />
          </mxGeometry>
        </mxCell>
        <mxCell id="CZb8hRHTpyJP-qP2cbdJ-50" value="$$\scriptsize\mathrm{Block}_{1:1}$$" style="edgeLabel;html=1;align=left;verticalAlign=middle;resizable=0;points=[];labelBackgroundColor=none;" vertex="1" connectable="0" parent="CZb8hRHTpyJP-qP2cbdJ-49">
          <mxGeometry x="0.6486" y="-1" relative="1" as="geometry">
            <mxPoint y="-13" as="offset" />
          </mxGeometry>
        </mxCell>
        <mxCell id="CZb8hRHTpyJP-qP2cbdJ-51" style="edgeStyle=orthogonalEdgeStyle;curved=1;rounded=0;orthogonalLoop=1;jettySize=auto;html=1;entryX=0.5;entryY=0;entryDx=0;entryDy=0;" edge="1" parent="CZb8hRHTpyJP-qP2cbdJ-1" target="CZb8hRHTpyJP-qP2cbdJ-55">
          <mxGeometry relative="1" as="geometry">
            <mxPoint x="359.9411764705883" y="440" as="targetPoint" />
            <mxPoint x="360" y="440" as="sourcePoint" />
          </mxGeometry>
        </mxCell>
        <mxCell id="CZb8hRHTpyJP-qP2cbdJ-52" value="$$\scriptsize\mathsf{Emp}$$" style="edgeLabel;html=1;align=left;verticalAlign=middle;resizable=0;points=[];labelBackgroundColor=none;" vertex="1" connectable="0" parent="CZb8hRHTpyJP-qP2cbdJ-51">
          <mxGeometry x="-0.3194" y="-1" relative="1" as="geometry">
            <mxPoint x="1" y="6.39" as="offset" />
          </mxGeometry>
        </mxCell>
        <mxCell id="CZb8hRHTpyJP-qP2cbdJ-53" style="edgeStyle=orthogonalEdgeStyle;rounded=0;orthogonalLoop=1;jettySize=auto;html=1;endArrow=classic;endFill=1;curved=1;exitX=0.75;exitY=1;exitDx=0;exitDy=0;" edge="1" parent="CZb8hRHTpyJP-qP2cbdJ-1" source="CZb8hRHTpyJP-qP2cbdJ-55">
          <mxGeometry relative="1" as="geometry">
            <mxPoint x="380" y="560" as="targetPoint" />
            <mxPoint x="380" y="530" as="sourcePoint" />
            <Array as="points">
              <mxPoint x="380" y="550" />
              <mxPoint x="380" y="550" />
            </Array>
          </mxGeometry>
        </mxCell>
        <mxCell id="CZb8hRHTpyJP-qP2cbdJ-54" value="$$\scriptsize\mathrm{String}$$" style="edgeLabel;html=1;align=left;verticalAlign=middle;resizable=0;points=[];labelBackgroundColor=none;" vertex="1" connectable="0" parent="CZb8hRHTpyJP-qP2cbdJ-53">
          <mxGeometry x="0.7262" y="1" relative="1" as="geometry">
            <mxPoint x="-1.01" y="-15" as="offset" />
          </mxGeometry>
        </mxCell>
        <mxCell id="CZb8hRHTpyJP-qP2cbdJ-55" value="$$\small\mathsf{name}$$" style="rounded=1;whiteSpace=wrap;html=1;labelBackgroundColor=none;fillColor=#f5f5f5;strokeColor=#666666;fontColor=#333333;" vertex="1" parent="CZb8hRHTpyJP-qP2cbdJ-1">
          <mxGeometry x="320" y="480" width="80" height="40" as="geometry" />
        </mxCell>
        <mxCell id="CZb8hRHTpyJP-qP2cbdJ-61" style="edgeStyle=orthogonalEdgeStyle;rounded=0;orthogonalLoop=1;jettySize=auto;html=1;curved=1;exitX=0.25;exitY=1;exitDx=0;exitDy=0;" edge="1" parent="CZb8hRHTpyJP-qP2cbdJ-1" source="CZb8hRHTpyJP-qP2cbdJ-67">
          <mxGeometry relative="1" as="geometry">
            <mxPoint x="460" y="560" as="targetPoint" />
          </mxGeometry>
        </mxCell>
        <mxCell id="CZb8hRHTpyJP-qP2cbdJ-62" value="$$\scriptsize\mathrm{Block}_{1:1}$$" style="edgeLabel;html=1;align=left;verticalAlign=middle;resizable=0;points=[];labelBackgroundColor=none;" vertex="1" connectable="0" parent="CZb8hRHTpyJP-qP2cbdJ-61">
          <mxGeometry x="0.6486" y="-1" relative="1" as="geometry">
            <mxPoint y="-13" as="offset" />
          </mxGeometry>
        </mxCell>
        <mxCell id="CZb8hRHTpyJP-qP2cbdJ-63" style="edgeStyle=orthogonalEdgeStyle;curved=1;rounded=0;orthogonalLoop=1;jettySize=auto;html=1;entryX=0.5;entryY=0;entryDx=0;entryDy=0;" edge="1" parent="CZb8hRHTpyJP-qP2cbdJ-1" target="CZb8hRHTpyJP-qP2cbdJ-67">
          <mxGeometry relative="1" as="geometry">
            <mxPoint x="479.9411764705883" y="440" as="targetPoint" />
            <mxPoint x="480" y="440" as="sourcePoint" />
          </mxGeometry>
        </mxCell>
        <mxCell id="CZb8hRHTpyJP-qP2cbdJ-64" value="$$\scriptsize\mathsf{Emp}$$" style="edgeLabel;html=1;align=left;verticalAlign=middle;resizable=0;points=[];labelBackgroundColor=none;" vertex="1" connectable="0" parent="CZb8hRHTpyJP-qP2cbdJ-63">
          <mxGeometry x="-0.3194" y="-1" relative="1" as="geometry">
            <mxPoint x="1" y="6.39" as="offset" />
          </mxGeometry>
        </mxCell>
        <mxCell id="CZb8hRHTpyJP-qP2cbdJ-65" style="edgeStyle=orthogonalEdgeStyle;rounded=0;orthogonalLoop=1;jettySize=auto;html=1;endArrow=classic;endFill=1;curved=1;exitX=0.75;exitY=1;exitDx=0;exitDy=0;" edge="1" parent="CZb8hRHTpyJP-qP2cbdJ-1" source="CZb8hRHTpyJP-qP2cbdJ-67">
          <mxGeometry relative="1" as="geometry">
            <mxPoint x="500" y="560" as="targetPoint" />
            <mxPoint x="500" y="530" as="sourcePoint" />
            <Array as="points">
              <mxPoint x="500" y="550" />
              <mxPoint x="500" y="550" />
            </Array>
          </mxGeometry>
        </mxCell>
        <mxCell id="CZb8hRHTpyJP-qP2cbdJ-66" value="$$\scriptsize\mathrm{Int}$$" style="edgeLabel;html=1;align=left;verticalAlign=middle;resizable=0;points=[];labelBackgroundColor=none;" vertex="1" connectable="0" parent="CZb8hRHTpyJP-qP2cbdJ-65">
          <mxGeometry x="0.7262" y="1" relative="1" as="geometry">
            <mxPoint x="-1.01" y="-15" as="offset" />
          </mxGeometry>
        </mxCell>
        <mxCell id="CZb8hRHTpyJP-qP2cbdJ-67" value="$$\small\mathsf{salary}$$" style="rounded=1;whiteSpace=wrap;html=1;labelBackgroundColor=none;fillColor=#f5f5f5;strokeColor=#666666;fontColor=#333333;" vertex="1" parent="CZb8hRHTpyJP-qP2cbdJ-1">
          <mxGeometry x="440" y="480" width="80" height="40" as="geometry" />
        </mxCell>
        <mxCell id="CZb8hRHTpyJP-qP2cbdJ-68" value="" style="shape=curlyBracket;whiteSpace=wrap;html=1;rounded=1;labelBackgroundColor=none;opacity=75;align=left;flipV=0;flipH=1;" vertex="1" parent="CZb8hRHTpyJP-qP2cbdJ-1">
          <mxGeometry x="470" y="120" width="20" height="120" as="geometry" />
        </mxCell>
        <mxCell id="CZb8hRHTpyJP-qP2cbdJ-69" value="Collections of database entities" style="text;html=1;align=left;verticalAlign=middle;resizable=0;points=[];autosize=1;fontSize=11;fontStyle=2" vertex="1" parent="CZb8hRHTpyJP-qP2cbdJ-1">
          <mxGeometry x="490" y="170" width="170" height="20" as="geometry" />
        </mxCell>
        <mxCell id="CZb8hRHTpyJP-qP2cbdJ-74" value="" style="shape=curlyBracket;whiteSpace=wrap;html=1;rounded=1;labelBackgroundColor=none;opacity=75;align=left;flipV=0;flipH=1;" vertex="1" parent="CZb8hRHTpyJP-qP2cbdJ-1">
          <mxGeometry x="470" y="280" width="20" height="120" as="geometry" />
        </mxCell>
        <mxCell id="CZb8hRHTpyJP-qP2cbdJ-75" value="Department attributes" style="text;html=1;align=left;verticalAlign=middle;resizable=0;points=[];autosize=1;fontSize=11;fontStyle=2" vertex="1" parent="CZb8hRHTpyJP-qP2cbdJ-1">
          <mxGeometry x="490" y="330" width="120" height="20" as="geometry" />
        </mxCell>
        <mxCell id="CZb8hRHTpyJP-qP2cbdJ-76" style="edgeStyle=orthogonalEdgeStyle;rounded=0;orthogonalLoop=1;jettySize=auto;html=1;curved=1;exitX=0.25;exitY=1;exitDx=0;exitDy=0;" edge="1" parent="CZb8hRHTpyJP-qP2cbdJ-1" source="CZb8hRHTpyJP-qP2cbdJ-82">
          <mxGeometry relative="1" as="geometry">
            <mxPoint x="580" y="560" as="targetPoint" />
          </mxGeometry>
        </mxCell>
        <mxCell id="CZb8hRHTpyJP-qP2cbdJ-77" value="$$\scriptsize\mathrm{Block}_{0:1}$$" style="edgeLabel;html=1;align=left;verticalAlign=middle;resizable=0;points=[];labelBackgroundColor=none;" vertex="1" connectable="0" parent="CZb8hRHTpyJP-qP2cbdJ-76">
          <mxGeometry x="0.6486" y="-1" relative="1" as="geometry">
            <mxPoint y="-13" as="offset" />
          </mxGeometry>
        </mxCell>
        <mxCell id="CZb8hRHTpyJP-qP2cbdJ-78" style="edgeStyle=orthogonalEdgeStyle;curved=1;rounded=0;orthogonalLoop=1;jettySize=auto;html=1;entryX=0.5;entryY=0;entryDx=0;entryDy=0;" edge="1" parent="CZb8hRHTpyJP-qP2cbdJ-1" target="CZb8hRHTpyJP-qP2cbdJ-82">
          <mxGeometry relative="1" as="geometry">
            <mxPoint x="599.9411764705883" y="440" as="targetPoint" />
            <mxPoint x="600" y="440" as="sourcePoint" />
          </mxGeometry>
        </mxCell>
        <mxCell id="CZb8hRHTpyJP-qP2cbdJ-79" value="$$\scriptsize\mathsf{Emp}$$" style="edgeLabel;html=1;align=left;verticalAlign=middle;resizable=0;points=[];labelBackgroundColor=none;" vertex="1" connectable="0" parent="CZb8hRHTpyJP-qP2cbdJ-78">
          <mxGeometry x="-0.3194" y="-1" relative="1" as="geometry">
            <mxPoint x="1" y="6.39" as="offset" />
          </mxGeometry>
        </mxCell>
        <mxCell id="CZb8hRHTpyJP-qP2cbdJ-80" style="edgeStyle=orthogonalEdgeStyle;rounded=0;orthogonalLoop=1;jettySize=auto;html=1;endArrow=classic;endFill=1;curved=1;exitX=0.75;exitY=1;exitDx=0;exitDy=0;" edge="1" parent="CZb8hRHTpyJP-qP2cbdJ-1" source="CZb8hRHTpyJP-qP2cbdJ-82">
          <mxGeometry relative="1" as="geometry">
            <mxPoint x="620" y="560" as="targetPoint" />
            <mxPoint x="620" y="530" as="sourcePoint" />
            <Array as="points">
              <mxPoint x="620" y="550" />
              <mxPoint x="620" y="550" />
            </Array>
          </mxGeometry>
        </mxCell>
        <mxCell id="CZb8hRHTpyJP-qP2cbdJ-81" value="$$\scriptsize\mathsf{Emp}$$" style="edgeLabel;html=1;align=left;verticalAlign=middle;resizable=0;points=[];labelBackgroundColor=none;" vertex="1" connectable="0" parent="CZb8hRHTpyJP-qP2cbdJ-80">
          <mxGeometry x="0.7262" y="1" relative="1" as="geometry">
            <mxPoint x="-1.01" y="-15" as="offset" />
          </mxGeometry>
        </mxCell>
        <mxCell id="CZb8hRHTpyJP-qP2cbdJ-82" value="$$\small\mathsf{manager}$$" style="rounded=1;whiteSpace=wrap;html=1;labelBackgroundColor=none;fillColor=#f5f5f5;strokeColor=#666666;fontColor=#333333;" vertex="1" parent="CZb8hRHTpyJP-qP2cbdJ-1">
          <mxGeometry x="560" y="480" width="80" height="40" as="geometry" />
        </mxCell>
        <mxCell id="CZb8hRHTpyJP-qP2cbdJ-83" style="edgeStyle=orthogonalEdgeStyle;rounded=0;orthogonalLoop=1;jettySize=auto;html=1;curved=1;exitX=0.25;exitY=1;exitDx=0;exitDy=0;" edge="1" parent="CZb8hRHTpyJP-qP2cbdJ-1" source="CZb8hRHTpyJP-qP2cbdJ-89">
          <mxGeometry relative="1" as="geometry">
            <mxPoint x="700" y="560" as="targetPoint" />
          </mxGeometry>
        </mxCell>
        <mxCell id="CZb8hRHTpyJP-qP2cbdJ-84" value="$$\scriptsize\mathrm{Block}_{0:N}$$" style="edgeLabel;html=1;align=left;verticalAlign=middle;resizable=0;points=[];labelBackgroundColor=none;" vertex="1" connectable="0" parent="CZb8hRHTpyJP-qP2cbdJ-83">
          <mxGeometry x="0.6486" y="-1" relative="1" as="geometry">
            <mxPoint y="-13" as="offset" />
          </mxGeometry>
        </mxCell>
        <mxCell id="CZb8hRHTpyJP-qP2cbdJ-85" style="edgeStyle=orthogonalEdgeStyle;curved=1;rounded=0;orthogonalLoop=1;jettySize=auto;html=1;entryX=0.5;entryY=0;entryDx=0;entryDy=0;" edge="1" parent="CZb8hRHTpyJP-qP2cbdJ-1" target="CZb8hRHTpyJP-qP2cbdJ-89">
          <mxGeometry relative="1" as="geometry">
            <mxPoint x="719.9411764705883" y="440" as="targetPoint" />
            <mxPoint x="720" y="440" as="sourcePoint" />
          </mxGeometry>
        </mxCell>
        <mxCell id="CZb8hRHTpyJP-qP2cbdJ-86" value="$$\scriptsize\mathsf{Emp}$$" style="edgeLabel;html=1;align=left;verticalAlign=middle;resizable=0;points=[];labelBackgroundColor=none;" vertex="1" connectable="0" parent="CZb8hRHTpyJP-qP2cbdJ-85">
          <mxGeometry x="-0.3194" y="-1" relative="1" as="geometry">
            <mxPoint x="1" y="6.39" as="offset" />
          </mxGeometry>
        </mxCell>
        <mxCell id="CZb8hRHTpyJP-qP2cbdJ-87" style="edgeStyle=orthogonalEdgeStyle;rounded=0;orthogonalLoop=1;jettySize=auto;html=1;endArrow=classic;endFill=1;curved=1;exitX=0.75;exitY=1;exitDx=0;exitDy=0;" edge="1" parent="CZb8hRHTpyJP-qP2cbdJ-1" source="CZb8hRHTpyJP-qP2cbdJ-89">
          <mxGeometry relative="1" as="geometry">
            <mxPoint x="740" y="560" as="targetPoint" />
            <mxPoint x="740" y="530" as="sourcePoint" />
            <Array as="points">
              <mxPoint x="740" y="550" />
              <mxPoint x="740" y="550" />
            </Array>
          </mxGeometry>
        </mxCell>
        <mxCell id="CZb8hRHTpyJP-qP2cbdJ-88" value="$$\scriptsize\mathsf{Emp}$$" style="edgeLabel;html=1;align=left;verticalAlign=middle;resizable=0;points=[];labelBackgroundColor=none;" vertex="1" connectable="0" parent="CZb8hRHTpyJP-qP2cbdJ-87">
          <mxGeometry x="0.7262" y="1" relative="1" as="geometry">
            <mxPoint x="-1.01" y="-15" as="offset" />
          </mxGeometry>
        </mxCell>
        <mxCell id="CZb8hRHTpyJP-qP2cbdJ-89" value="$$\small\mathsf{subordinate}$$" style="rounded=1;whiteSpace=wrap;html=1;labelBackgroundColor=none;fillColor=#f5f5f5;strokeColor=#666666;fontColor=#333333;" vertex="1" parent="CZb8hRHTpyJP-qP2cbdJ-1">
          <mxGeometry x="680" y="480" width="80" height="40" as="geometry" />
        </mxCell>
        <mxCell id="CZb8hRHTpyJP-qP2cbdJ-90" value="" style="shape=curlyBracket;whiteSpace=wrap;html=1;rounded=1;labelBackgroundColor=none;opacity=75;align=left;flipV=0;flipH=0;" vertex="1" parent="CZb8hRHTpyJP-qP2cbdJ-1">
          <mxGeometry x="110" y="440" width="20" height="120" as="geometry" />
        </mxCell>
        <mxCell id="CZb8hRHTpyJP-qP2cbdJ-91" value="Employee&lt;br&gt;attributes" style="text;html=1;align=right;verticalAlign=middle;resizable=0;points=[];autosize=1;fontSize=11;fontStyle=2" vertex="1" parent="CZb8hRHTpyJP-qP2cbdJ-1">
          <mxGeometry x="50" y="485" width="60" height="30" as="geometry" />
        </mxCell>
      </root>
    </mxGraphModel>
  </diagram>
  <diagram name="Composition Challenge" id="FcauzH12tUQ3tFI-XtoJ">
    <mxGraphModel dx="1620" dy="898" grid="1" gridSize="10" guides="1" tooltips="1" connect="1" arrows="1" fold="1" page="1" pageScale="1" pageWidth="980" pageHeight="690" math="1" shadow="0">
      <root>
        <mxCell id="OhjeIGOFHsI1Wt5O6pDu-0" />
        <mxCell id="OhjeIGOFHsI1Wt5O6pDu-1" parent="OhjeIGOFHsI1Wt5O6pDu-0" />
        <mxCell id="OhjeIGOFHsI1Wt5O6pDu-2" value="&lt;h1&gt;Composition Challenge&lt;br&gt;&lt;/h1&gt;" style="text;align=center;verticalAlign=middle;resizable=0;points=[];autosize=1;labelBorderColor=none;labelBackgroundColor=none;html=1;" vertex="1" parent="OhjeIGOFHsI1Wt5O6pDu-1">
          <mxGeometry x="40" y="30" width="280" height="50" as="geometry" />
        </mxCell>
        <mxCell id="OhjeIGOFHsI1Wt5O6pDu-3" style="edgeStyle=orthogonalEdgeStyle;rounded=0;orthogonalLoop=1;jettySize=auto;html=1;curved=1;exitX=0.75;exitY=1;exitDx=0;exitDy=0;" edge="1" parent="OhjeIGOFHsI1Wt5O6pDu-1" source="OhjeIGOFHsI1Wt5O6pDu-7">
          <mxGeometry relative="1" as="geometry">
            <mxPoint x="540" y="560" as="targetPoint" />
          </mxGeometry>
        </mxCell>
        <mxCell id="OhjeIGOFHsI1Wt5O6pDu-4" value="$$\small B$$" style="edgeLabel;html=1;align=left;verticalAlign=middle;resizable=0;points=[];labelBackgroundColor=none;" vertex="1" connectable="0" parent="OhjeIGOFHsI1Wt5O6pDu-3">
          <mxGeometry x="-0.2361" relative="1" as="geometry">
            <mxPoint y="4.72" as="offset" />
          </mxGeometry>
        </mxCell>
        <mxCell id="OhjeIGOFHsI1Wt5O6pDu-5" style="edgeStyle=orthogonalEdgeStyle;curved=1;rounded=0;orthogonalLoop=1;jettySize=auto;html=1;entryX=0.5;entryY=0;entryDx=0;entryDy=0;" edge="1" parent="OhjeIGOFHsI1Wt5O6pDu-1" target="OhjeIGOFHsI1Wt5O6pDu-7">
          <mxGeometry relative="1" as="geometry">
            <mxPoint x="519.9411764705883" y="440" as="targetPoint" />
            <mxPoint x="520" y="440" as="sourcePoint" />
          </mxGeometry>
        </mxCell>
        <mxCell id="OhjeIGOFHsI1Wt5O6pDu-6" value="$$\small A$$" style="edgeLabel;html=1;align=left;verticalAlign=middle;resizable=0;points=[];labelBackgroundColor=none;" vertex="1" connectable="0" parent="OhjeIGOFHsI1Wt5O6pDu-5">
          <mxGeometry x="-0.3194" y="-1" relative="1" as="geometry">
            <mxPoint x="1" y="6.39" as="offset" />
          </mxGeometry>
        </mxCell>
        <mxCell id="OhjeIGOFHsI1Wt5O6pDu-7" value="" style="rounded=1;whiteSpace=wrap;html=1;labelBackgroundColor=none;strokeColor=#666666;fontColor=#333333;fillColor=none;dashed=1;" vertex="1" parent="OhjeIGOFHsI1Wt5O6pDu-1">
          <mxGeometry x="480" y="480" width="80" height="40" as="geometry" />
        </mxCell>
        <mxCell id="OhjeIGOFHsI1Wt5O6pDu-8" style="edgeStyle=orthogonalEdgeStyle;rounded=0;orthogonalLoop=1;jettySize=auto;html=1;curved=1;exitX=0.25;exitY=1;exitDx=0;exitDy=0;" edge="1" parent="OhjeIGOFHsI1Wt5O6pDu-1" source="OhjeIGOFHsI1Wt5O6pDu-7">
          <mxGeometry relative="1" as="geometry">
            <mxPoint x="500" y="560" as="targetPoint" />
            <mxPoint x="780" y="520" as="sourcePoint" />
          </mxGeometry>
        </mxCell>
        <mxCell id="OhjeIGOFHsI1Wt5O6pDu-9" value="$$\scriptsize\mathrm{Block}_c$$" style="edgeLabel;html=1;align=left;verticalAlign=middle;resizable=0;points=[];labelBackgroundColor=none;" vertex="1" connectable="0" parent="OhjeIGOFHsI1Wt5O6pDu-8">
          <mxGeometry x="0.6486" y="-1" relative="1" as="geometry">
            <mxPoint y="-13.14" as="offset" />
          </mxGeometry>
        </mxCell>
        <mxCell id="OhjeIGOFHsI1Wt5O6pDu-24" style="edgeStyle=orthogonalEdgeStyle;rounded=0;orthogonalLoop=1;jettySize=auto;html=1;curved=1;exitX=0.25;exitY=1;exitDx=0;exitDy=0;" edge="1" parent="OhjeIGOFHsI1Wt5O6pDu-1" source="OhjeIGOFHsI1Wt5O6pDu-30">
          <mxGeometry relative="1" as="geometry">
            <mxPoint x="60" y="300" as="targetPoint" />
          </mxGeometry>
        </mxCell>
        <mxCell id="OhjeIGOFHsI1Wt5O6pDu-25" value="$$\scriptsize\mathrm{Block}_{0:N}$$" style="edgeLabel;html=1;align=left;verticalAlign=middle;resizable=0;points=[];labelBackgroundColor=none;" vertex="1" connectable="0" parent="OhjeIGOFHsI1Wt5O6pDu-24">
          <mxGeometry x="0.6486" y="-1" relative="1" as="geometry">
            <mxPoint y="-13.14" as="offset" />
          </mxGeometry>
        </mxCell>
        <mxCell id="OhjeIGOFHsI1Wt5O6pDu-26" style="edgeStyle=orthogonalEdgeStyle;curved=1;rounded=0;orthogonalLoop=1;jettySize=auto;html=1;entryX=0.5;entryY=0;entryDx=0;entryDy=0;" edge="1" parent="OhjeIGOFHsI1Wt5O6pDu-1" target="OhjeIGOFHsI1Wt5O6pDu-30">
          <mxGeometry relative="1" as="geometry">
            <mxPoint x="79.94117647058829" y="180" as="targetPoint" />
            <mxPoint x="80" y="180" as="sourcePoint" />
          </mxGeometry>
        </mxCell>
        <mxCell id="OhjeIGOFHsI1Wt5O6pDu-27" value="$$\scriptsize\mathsf{Dept}$$" style="edgeLabel;html=1;align=left;verticalAlign=middle;resizable=0;points=[];labelBackgroundColor=none;" vertex="1" connectable="0" parent="OhjeIGOFHsI1Wt5O6pDu-26">
          <mxGeometry x="-0.3194" y="-1" relative="1" as="geometry">
            <mxPoint x="1" y="6.39" as="offset" />
          </mxGeometry>
        </mxCell>
        <mxCell id="OhjeIGOFHsI1Wt5O6pDu-28" style="edgeStyle=orthogonalEdgeStyle;rounded=0;orthogonalLoop=1;jettySize=auto;html=1;endArrow=classic;endFill=1;curved=1;exitX=0.75;exitY=1;exitDx=0;exitDy=0;" edge="1" parent="OhjeIGOFHsI1Wt5O6pDu-1" source="OhjeIGOFHsI1Wt5O6pDu-30">
          <mxGeometry relative="1" as="geometry">
            <mxPoint x="100" y="300" as="targetPoint" />
            <mxPoint x="100" y="270" as="sourcePoint" />
            <Array as="points">
              <mxPoint x="100" y="290" />
              <mxPoint x="100" y="290" />
            </Array>
          </mxGeometry>
        </mxCell>
        <mxCell id="OhjeIGOFHsI1Wt5O6pDu-29" value="$$\scriptsize\mathsf{Emp}$$" style="edgeLabel;html=1;align=left;verticalAlign=middle;resizable=0;points=[];labelBackgroundColor=none;" vertex="1" connectable="0" parent="OhjeIGOFHsI1Wt5O6pDu-28">
          <mxGeometry x="0.7262" y="1" relative="1" as="geometry">
            <mxPoint x="-1.01" y="-14.29" as="offset" />
          </mxGeometry>
        </mxCell>
        <mxCell id="OhjeIGOFHsI1Wt5O6pDu-30" value="$$\small\mathsf{employee}$$" style="rounded=1;whiteSpace=wrap;html=1;labelBackgroundColor=none;fillColor=#f5f5f5;strokeColor=#666666;fontColor=#333333;" vertex="1" parent="OhjeIGOFHsI1Wt5O6pDu-1">
          <mxGeometry x="40" y="220" width="80" height="40" as="geometry" />
        </mxCell>
        <mxCell id="OhjeIGOFHsI1Wt5O6pDu-63" style="edgeStyle=orthogonalEdgeStyle;rounded=0;orthogonalLoop=1;jettySize=auto;html=1;curved=1;exitX=0.25;exitY=1;exitDx=0;exitDy=0;" edge="1" parent="OhjeIGOFHsI1Wt5O6pDu-1" source="OhjeIGOFHsI1Wt5O6pDu-69">
          <mxGeometry relative="1" as="geometry">
            <mxPoint x="60" y="440" as="targetPoint" />
          </mxGeometry>
        </mxCell>
        <mxCell id="OhjeIGOFHsI1Wt5O6pDu-64" value="$$\scriptsize\mathrm{Block}_{0:1}$$" style="edgeLabel;html=1;align=left;verticalAlign=middle;resizable=0;points=[];labelBackgroundColor=none;" vertex="1" connectable="0" parent="OhjeIGOFHsI1Wt5O6pDu-63">
          <mxGeometry x="0.6486" y="-1" relative="1" as="geometry">
            <mxPoint y="-13" as="offset" />
          </mxGeometry>
        </mxCell>
        <mxCell id="OhjeIGOFHsI1Wt5O6pDu-65" style="edgeStyle=orthogonalEdgeStyle;curved=1;rounded=0;orthogonalLoop=1;jettySize=auto;html=1;entryX=0.5;entryY=0;entryDx=0;entryDy=0;" edge="1" parent="OhjeIGOFHsI1Wt5O6pDu-1" target="OhjeIGOFHsI1Wt5O6pDu-69">
          <mxGeometry relative="1" as="geometry">
            <mxPoint x="79.94117647058829" y="320" as="targetPoint" />
            <mxPoint x="80" y="320" as="sourcePoint" />
          </mxGeometry>
        </mxCell>
        <mxCell id="OhjeIGOFHsI1Wt5O6pDu-66" value="$$\scriptsize\mathsf{Emp}$$" style="edgeLabel;html=1;align=left;verticalAlign=middle;resizable=0;points=[];labelBackgroundColor=none;" vertex="1" connectable="0" parent="OhjeIGOFHsI1Wt5O6pDu-65">
          <mxGeometry x="-0.3194" y="-1" relative="1" as="geometry">
            <mxPoint x="1" y="6.39" as="offset" />
          </mxGeometry>
        </mxCell>
        <mxCell id="OhjeIGOFHsI1Wt5O6pDu-67" style="edgeStyle=orthogonalEdgeStyle;rounded=0;orthogonalLoop=1;jettySize=auto;html=1;endArrow=classic;endFill=1;curved=1;exitX=0.75;exitY=1;exitDx=0;exitDy=0;" edge="1" parent="OhjeIGOFHsI1Wt5O6pDu-1" source="OhjeIGOFHsI1Wt5O6pDu-69">
          <mxGeometry relative="1" as="geometry">
            <mxPoint x="100" y="440" as="targetPoint" />
            <mxPoint x="100" y="410" as="sourcePoint" />
            <Array as="points">
              <mxPoint x="100" y="430" />
              <mxPoint x="100" y="430" />
            </Array>
          </mxGeometry>
        </mxCell>
        <mxCell id="OhjeIGOFHsI1Wt5O6pDu-68" value="$$\scriptsize\mathsf{Emp}$$" style="edgeLabel;html=1;align=left;verticalAlign=middle;resizable=0;points=[];labelBackgroundColor=none;" vertex="1" connectable="0" parent="OhjeIGOFHsI1Wt5O6pDu-67">
          <mxGeometry x="0.7262" y="1" relative="1" as="geometry">
            <mxPoint x="-1.01" y="-15" as="offset" />
          </mxGeometry>
        </mxCell>
        <mxCell id="OhjeIGOFHsI1Wt5O6pDu-69" value="$$\small\mathsf{manager}$$" style="rounded=1;whiteSpace=wrap;html=1;labelBackgroundColor=none;fillColor=#f5f5f5;strokeColor=#666666;fontColor=#333333;" vertex="1" parent="OhjeIGOFHsI1Wt5O6pDu-1">
          <mxGeometry x="40" y="360" width="80" height="40" as="geometry" />
        </mxCell>
        <mxCell id="OhjeIGOFHsI1Wt5O6pDu-79" value="Two monadic transformations&lt;br&gt; can be composed." style="text;html=1;align=left;verticalAlign=middle;resizable=0;points=[];autosize=1;fontSize=12;" vertex="1" parent="OhjeIGOFHsI1Wt5O6pDu-1">
          <mxGeometry x="40" y="120" width="170" height="30" as="geometry" />
        </mxCell>
        <mxCell id="OhjeIGOFHsI1Wt5O6pDu-80" value="" style="html=1;shadow=0;dashed=0;align=center;verticalAlign=middle;shape=mxgraph.arrows2.arrow;dy=0.6;dx=40;notch=0;labelBackgroundColor=none;strokeColor=none;fillColor=#E6E6E6;" vertex="1" parent="OhjeIGOFHsI1Wt5O6pDu-1">
          <mxGeometry x="170" y="260" width="100" height="100" as="geometry" />
        </mxCell>
        <mxCell id="OhjeIGOFHsI1Wt5O6pDu-81" style="edgeStyle=orthogonalEdgeStyle;rounded=0;orthogonalLoop=1;jettySize=auto;html=1;curved=1;exitX=0.25;exitY=1;exitDx=0;exitDy=0;" edge="1" parent="OhjeIGOFHsI1Wt5O6pDu-1" source="OhjeIGOFHsI1Wt5O6pDu-87">
          <mxGeometry relative="1" as="geometry">
            <mxPoint x="340" y="440" as="targetPoint" />
          </mxGeometry>
        </mxCell>
        <mxCell id="OhjeIGOFHsI1Wt5O6pDu-82" value="$$\scriptsize\mathrm{Block}_{0:N}$$" style="edgeLabel;html=1;align=left;verticalAlign=middle;resizable=0;points=[];labelBackgroundColor=none;" vertex="1" connectable="0" parent="OhjeIGOFHsI1Wt5O6pDu-81">
          <mxGeometry x="0.6486" y="-1" relative="1" as="geometry">
            <mxPoint y="8.099999999999998" as="offset" />
          </mxGeometry>
        </mxCell>
        <mxCell id="OhjeIGOFHsI1Wt5O6pDu-83" style="edgeStyle=orthogonalEdgeStyle;curved=1;rounded=0;orthogonalLoop=1;jettySize=auto;html=1;entryX=0.5;entryY=0;entryDx=0;entryDy=0;" edge="1" parent="OhjeIGOFHsI1Wt5O6pDu-1" target="OhjeIGOFHsI1Wt5O6pDu-87">
          <mxGeometry relative="1" as="geometry">
            <mxPoint x="359.9411764705883" y="200" as="targetPoint" />
            <mxPoint x="360" y="180" as="sourcePoint" />
          </mxGeometry>
        </mxCell>
        <mxCell id="OhjeIGOFHsI1Wt5O6pDu-84" value="$$\scriptsize\mathsf{Dept}$$" style="edgeLabel;html=1;align=left;verticalAlign=middle;resizable=0;points=[];labelBackgroundColor=none;" vertex="1" connectable="0" parent="OhjeIGOFHsI1Wt5O6pDu-83">
          <mxGeometry x="-0.3194" y="-1" relative="1" as="geometry">
            <mxPoint x="1" as="offset" />
          </mxGeometry>
        </mxCell>
        <mxCell id="OhjeIGOFHsI1Wt5O6pDu-85" style="edgeStyle=orthogonalEdgeStyle;rounded=0;orthogonalLoop=1;jettySize=auto;html=1;endArrow=classic;endFill=1;curved=1;exitX=0.75;exitY=1;exitDx=0;exitDy=0;entryX=0.5;entryY=0;entryDx=0;entryDy=0;" edge="1" parent="OhjeIGOFHsI1Wt5O6pDu-1" source="OhjeIGOFHsI1Wt5O6pDu-87" target="OhjeIGOFHsI1Wt5O6pDu-92">
          <mxGeometry relative="1" as="geometry">
            <mxPoint x="380" y="320" as="targetPoint" />
            <mxPoint x="380" y="290" as="sourcePoint" />
            <Array as="points">
              <mxPoint x="380" y="300" />
              <mxPoint x="400" y="300" />
            </Array>
          </mxGeometry>
        </mxCell>
        <mxCell id="OhjeIGOFHsI1Wt5O6pDu-86" value="$$\scriptsize\mathsf{Emp}$$" style="edgeLabel;html=1;align=left;verticalAlign=middle;resizable=0;points=[];labelBackgroundColor=none;" vertex="1" connectable="0" parent="OhjeIGOFHsI1Wt5O6pDu-85">
          <mxGeometry x="0.7262" y="1" relative="1" as="geometry">
            <mxPoint x="-1" y="-14.29" as="offset" />
          </mxGeometry>
        </mxCell>
        <mxCell id="OhjeIGOFHsI1Wt5O6pDu-87" value="$$\small\mathsf{employee}$$" style="rounded=1;whiteSpace=wrap;html=1;labelBackgroundColor=none;fillColor=#f5f5f5;strokeColor=#666666;fontColor=#333333;" vertex="1" parent="OhjeIGOFHsI1Wt5O6pDu-1">
          <mxGeometry x="320" y="240" width="80" height="40" as="geometry" />
        </mxCell>
        <mxCell id="OhjeIGOFHsI1Wt5O6pDu-88" style="edgeStyle=orthogonalEdgeStyle;rounded=0;orthogonalLoop=1;jettySize=auto;html=1;curved=1;exitX=0.25;exitY=1;exitDx=0;exitDy=0;" edge="1" parent="OhjeIGOFHsI1Wt5O6pDu-1" source="OhjeIGOFHsI1Wt5O6pDu-92">
          <mxGeometry relative="1" as="geometry">
            <mxPoint x="380" y="440" as="targetPoint" />
          </mxGeometry>
        </mxCell>
        <mxCell id="OhjeIGOFHsI1Wt5O6pDu-89" value="$$\scriptsize\mathrm{Block}_{0:1}$$" style="edgeLabel;html=1;align=left;verticalAlign=middle;resizable=0;points=[];labelBackgroundColor=none;" vertex="1" connectable="0" parent="OhjeIGOFHsI1Wt5O6pDu-88">
          <mxGeometry x="0.6486" y="-1" relative="1" as="geometry">
            <mxPoint y="-5.71" as="offset" />
          </mxGeometry>
        </mxCell>
        <mxCell id="OhjeIGOFHsI1Wt5O6pDu-90" style="edgeStyle=orthogonalEdgeStyle;rounded=0;orthogonalLoop=1;jettySize=auto;html=1;endArrow=classic;endFill=1;curved=1;exitX=0.75;exitY=1;exitDx=0;exitDy=0;" edge="1" parent="OhjeIGOFHsI1Wt5O6pDu-1" source="OhjeIGOFHsI1Wt5O6pDu-92">
          <mxGeometry relative="1" as="geometry">
            <mxPoint x="420" y="440" as="targetPoint" />
            <mxPoint x="420" y="370" as="sourcePoint" />
            <Array as="points">
              <mxPoint x="420" y="390" />
              <mxPoint x="420" y="390" />
            </Array>
          </mxGeometry>
        </mxCell>
        <mxCell id="OhjeIGOFHsI1Wt5O6pDu-91" value="$$\scriptsize\mathsf{Emp}$$" style="edgeLabel;html=1;align=left;verticalAlign=middle;resizable=0;points=[];labelBackgroundColor=none;" vertex="1" connectable="0" parent="OhjeIGOFHsI1Wt5O6pDu-90">
          <mxGeometry x="0.7262" y="1" relative="1" as="geometry">
            <mxPoint x="-1.01" y="-9.05" as="offset" />
          </mxGeometry>
        </mxCell>
        <mxCell id="OhjeIGOFHsI1Wt5O6pDu-92" value="$$\small\mathsf{manager}$$" style="rounded=1;whiteSpace=wrap;html=1;labelBackgroundColor=none;fillColor=#f5f5f5;strokeColor=#666666;fontColor=#333333;" vertex="1" parent="OhjeIGOFHsI1Wt5O6pDu-1">
          <mxGeometry x="360" y="320" width="80" height="40" as="geometry" />
        </mxCell>
        <mxCell id="OhjeIGOFHsI1Wt5O6pDu-94" value="But the composition&lt;br&gt;does not satisfy&lt;br&gt; the monadic interface." style="text;html=1;align=left;verticalAlign=middle;resizable=0;points=[];autosize=1;fontSize=12;" vertex="1" parent="OhjeIGOFHsI1Wt5O6pDu-1">
          <mxGeometry x="320" y="480" width="130" height="50" as="geometry" />
        </mxCell>
        <mxCell id="OhjeIGOFHsI1Wt5O6pDu-95" value="" style="verticalLabelPosition=bottom;verticalAlign=top;html=1;shape=mxgraph.basic.x;rounded=0;labelBackgroundColor=none;fillColor=#a20025;fontSize=12;align=left;fontColor=#ffffff;strokeColor=none;" vertex="1" parent="OhjeIGOFHsI1Wt5O6pDu-1">
          <mxGeometry x="550" y="470" width="20" height="20" as="geometry" />
        </mxCell>
      </root>
    </mxGraphModel>
  </diagram>
</mxfile>
